  0
SECTION
  2
HEADER
  9
$ACADVER
  1
AC1009
  9
$FILLMODE
 70
 0
  9
$SPLFRAME
 70
 1
  9
$EXTMIN
 10
0
 20
0
 30
0.0
  9
$EXTMAX
 10
1058.33
 20
1058.33
 30
0.0
  0
ENDSEC
  0
SECTION
  2
TABLES
  0
TABLE
  2
LAYER
 70
1
  0
LAYER
  2
0
 70
     0
 62
     7
  6
CONTINUOUS
  0
ENDTAB
  0
ENDSEC
  0
SECTION
  2
ENTITIES
  0
LINE
  8
0
 62
     0
 10
150.497
 20
119.496
 30
0.0
 11
150.653
 21
119.49
 31
0.0
  0
LINE
  8
0
 62
     0
 10
150.653
 20
119.49
 30
0.0
 11
150.808
 21
119.472
 31
0.0
  0
LINE
  8
0
 62
     0
 10
150.808
 20
119.472
 30
0.0
 11
150.963
 21
119.441
 31
0.0
  0
LINE
  8
0
 62
     0
 10
150.963
 20
119.441
 30
0.0
 11
151.114
 21
119.399
 31
0.0
  0
LINE
  8
0
 62
     0
 10
151.114
 20
119.399
 30
0.0
 11
151.262
 21
119.344
 31
0.0
  0
LINE
  8
0
 62
     0
 10
151.262
 20
119.344
 30
0.0
 11
151.404
 21
119.279
 31
0.0
  0
LINE
  8
0
 62
     0
 10
151.404
 20
119.279
 30
0.0
 11
151.54
 21
119.202
 31
0.0
  0
LINE
  8
0
 62
     0
 10
151.54
 20
119.202
 30
0.0
 11
151.671
 21
119.115
 31
0.0
  0
LINE
  8
0
 62
     0
 10
151.671
 20
119.115
 30
0.0
 11
151.795
 21
119.017
 31
0.0
  0
LINE
  8
0
 62
     0
 10
151.795
 20
119.017
 30
0.0
 11
151.911
 21
118.911
 31
0.0
  0
LINE
  8
0
 62
     0
 10
151.911
 20
118.911
 30
0.0
 11
152.017
 21
118.795
 31
0.0
  0
LINE
  8
0
 62
     0
 10
152.017
 20
118.795
 30
0.0
 11
152.115
 21
118.673
 31
0.0
  0
LINE
  8
0
 62
     0
 10
152.115
 20
118.673
 30
0.0
 11
152.202
 21
118.541
 31
0.0
  0
LINE
  8
0
 62
     0
 10
152.202
 20
118.541
 30
0.0
 11
152.279
 21
118.404
 31
0.0
  0
LINE
  8
0
 62
     0
 10
152.279
 20
118.404
 30
0.0
 11
152.344
 21
118.262
 31
0.0
  0
LINE
  8
0
 62
     0
 10
152.344
 20
118.262
 30
0.0
 11
152.399
 21
118.116
 31
0.0
  0
LINE
  8
0
 62
     0
 10
152.399
 20
118.116
 30
0.0
 11
152.44
 21
117.963
 31
0.0
  0
LINE
  8
0
 62
     0
 10
152.44
 20
117.963
 30
0.0
 11
152.472
 21
117.81
 31
0.0
  0
LINE
  8
0
 62
     0
 10
152.472
 20
117.81
 30
0.0
 11
152.49
 21
117.653
 31
0.0
  0
LINE
  8
0
 62
     0
 10
152.49
 20
117.653
 30
0.0
 11
152.496
 21
117.496
 31
0.0
  0
LINE
  8
0
 62
     0
 10
152.496
 20
117.496
 30
0.0
 11
152.496
 21
2.19659
 31
0.0
  0
LINE
  8
0
 62
     0
 10
152.496
 20
2.19659
 30
0.0
 11
152.49
 21
2.0395
 31
0.0
  0
LINE
  8
0
 62
     0
 10
152.49
 20
2.0395
 30
0.0
 11
152.472
 21
1.88378
 31
0.0
  0
LINE
  8
0
 62
     0
 10
152.472
 20
1.88378
 30
0.0
 11
152.44
 21
1.72944
 31
0.0
  0
LINE
  8
0
 62
     0
 10
152.44
 20
1.72944
 30
0.0
 11
152.399
 21
1.57786
 31
0.0
  0
LINE
  8
0
 62
     0
 10
152.399
 20
1.57786
 30
0.0
 11
152.344
 21
1.4304
 31
0.0
  0
LINE
  8
0
 62
     0
 10
152.344
 20
1.4304
 30
0.0
 11
152.279
 21
1.28846
 31
0.0
  0
LINE
  8
0
 62
     0
 10
152.279
 20
1.28846
 30
0.0
 11
152.202
 21
1.15066
 31
0.0
  0
LINE
  8
0
 62
     0
 10
152.202
 20
1.15066
 30
0.0
 11
152.115
 21
1.01975
 31
0.0
  0
LINE
  8
0
 62
     0
 10
152.115
 20
1.01975
 30
0.0
 11
152.017
 21
0.897103
 31
0.0
  0
LINE
  8
0
 62
     0
 10
152.017
 20
0.897103
 30
0.0
 11
151.911
 21
0.781346
 31
0.0
  0
LINE
  8
0
 62
     0
 10
151.911
 20
0.781346
 30
0.0
 11
151.795
 21
0.675238
 31
0.0
  0
LINE
  8
0
 62
     0
 10
151.795
 20
0.675238
 30
0.0
 11
151.671
 21
0.577398
 31
0.0
  0
LINE
  8
0
 62
     0
 10
151.671
 20
0.577398
 30
0.0
 11
151.54
 21
0.490583
 31
0.0
  0
LINE
  8
0
 62
     0
 10
151.54
 20
0.490583
 30
0.0
 11
151.404
 21
0.413413
 31
0.0
  0
LINE
  8
0
 62
     0
 10
151.404
 20
0.413413
 30
0.0
 11
151.262
 21
0.348644
 31
0.0
  0
LINE
  8
0
 62
     0
 10
151.262
 20
0.348644
 30
0.0
 11
151.114
 21
0.293522
 31
0.0
  0
LINE
  8
0
 62
     0
 10
151.114
 20
0.293522
 30
0.0
 11
150.963
 21
0.250803
 31
0.0
  0
LINE
  8
0
 62
     0
 10
150.963
 20
0.250803
 30
0.0
 11
150.808
 21
0.220486
 31
0.0
  0
LINE
  8
0
 62
     0
 10
150.808
 20
0.220486
 30
0.0
 11
150.653
 21
0.202572
 31
0.0
  0
LINE
  8
0
 62
     0
 10
150.653
 20
0.202572
 30
0.0
 11
150.496
 21
0.195682
 31
0.0
  0
LINE
  8
0
 62
     0
 10
150.496
 20
0.195682
 30
0.0
 11
2.096
 21
0.195682
 31
0.0
  0
LINE
  8
0
 62
     0
 10
2.096
 20
0.195682
 30
0.0
 11
1.9389
 21
0.202572
 31
0.0
  0
LINE
  8
0
 62
     0
 10
1.9389
 20
0.202572
 30
0.0
 11
1.7818
 21
0.220486
 31
0.0
  0
LINE
  8
0
 62
     0
 10
1.7818
 20
0.220486
 30
0.0
 11
1.62884
 21
0.250803
 31
0.0
  0
LINE
  8
0
 62
     0
 10
1.62884
 20
0.250803
 30
0.0
 11
1.47588
 21
0.293522
 31
0.0
  0
LINE
  8
0
 62
     0
 10
1.47588
 20
0.293522
 30
0.0
 11
1.32981
 21
0.348644
 31
0.0
  0
LINE
  8
0
 62
     0
 10
1.32981
 20
0.348644
 30
0.0
 11
1.18787
 21
0.413413
 31
0.0
  0
LINE
  8
0
 62
     0
 10
1.18787
 20
0.413413
 30
0.0
 11
1.05006
 21
0.490583
 31
0.0
  0
LINE
  8
0
 62
     0
 10
1.05006
 20
0.490583
 30
0.0
 11
0.919152
 21
0.577398
 31
0.0
  0
LINE
  8
0
 62
     0
 10
0.919152
 20
0.577398
 30
0.0
 11
0.796505
 21
0.675238
 31
0.0
  0
LINE
  8
0
 62
     0
 10
0.796505
 20
0.675238
 30
0.0
 11
0.680752
 21
0.781346
 31
0.0
  0
LINE
  8
0
 62
     0
 10
0.680752
 20
0.781346
 30
0.0
 11
0.574643
 21
0.897103
 31
0.0
  0
LINE
  8
0
 62
     0
 10
0.574643
 20
0.897103
 30
0.0
 11
0.4768
 21
1.01975
 31
0.0
  0
LINE
  8
0
 62
     0
 10
0.4768
 20
1.01975
 30
0.0
 11
0.389985
 21
1.15066
 31
0.0
  0
LINE
  8
0
 62
     0
 10
0.389985
 20
1.15066
 30
0.0
 11
0.312815
 21
1.28846
 31
0.0
  0
LINE
  8
0
 62
     0
 10
0.312815
 20
1.28846
 30
0.0
 11
0.248047
 21
1.4304
 31
0.0
  0
LINE
  8
0
 62
     0
 10
0.248047
 20
1.4304
 30
0.0
 11
0.192925
 21
1.57786
 31
0.0
  0
LINE
  8
0
 62
     0
 10
0.192925
 20
1.57786
 30
0.0
 11
0.150206
 21
1.72944
 31
0.0
  0
LINE
  8
0
 62
     0
 10
0.150206
 20
1.72944
 30
0.0
 11
0.119889
 21
1.88378
 31
0.0
  0
LINE
  8
0
 62
     0
 10
0.119889
 20
1.88378
 30
0.0
 11
0.101975
 21
2.0395
 31
0.0
  0
LINE
  8
0
 62
     0
 10
0.101975
 20
2.0395
 30
0.0
 11
0.0950846
 21
2.19522
 31
0.0
  0
LINE
  8
0
 62
     0
 10
0.0950846
 20
2.19522
 30
0.0
 11
0.0950846
 21
117.496
 31
0.0
  0
LINE
  8
0
 62
     0
 10
0.0950846
 20
117.496
 30
0.0
 11
0.101975
 21
117.653
 31
0.0
  0
LINE
  8
0
 62
     0
 10
0.101975
 20
117.653
 30
0.0
 11
0.119889
 21
117.81
 31
0.0
  0
LINE
  8
0
 62
     0
 10
0.119889
 20
117.81
 30
0.0
 11
0.150206
 21
117.963
 31
0.0
  0
LINE
  8
0
 62
     0
 10
0.150206
 20
117.963
 30
0.0
 11
0.192925
 21
118.116
 31
0.0
  0
LINE
  8
0
 62
     0
 10
0.192925
 20
118.116
 30
0.0
 11
0.248047
 21
118.262
 31
0.0
  0
LINE
  8
0
 62
     0
 10
0.248047
 20
118.262
 30
0.0
 11
0.312815
 21
118.404
 31
0.0
  0
LINE
  8
0
 62
     0
 10
0.312815
 20
118.404
 30
0.0
 11
0.389985
 21
118.541
 31
0.0
  0
LINE
  8
0
 62
     0
 10
0.389985
 20
118.541
 30
0.0
 11
0.4768
 21
118.673
 31
0.0
  0
LINE
  8
0
 62
     0
 10
0.4768
 20
118.673
 30
0.0
 11
0.574643
 21
118.795
 31
0.0
  0
LINE
  8
0
 62
     0
 10
0.574643
 20
118.795
 30
0.0
 11
0.680752
 21
118.911
 31
0.0
  0
LINE
  8
0
 62
     0
 10
0.680752
 20
118.911
 30
0.0
 11
0.796505
 21
119.017
 31
0.0
  0
LINE
  8
0
 62
     0
 10
0.796505
 20
119.017
 30
0.0
 11
0.919152
 21
119.115
 31
0.0
  0
LINE
  8
0
 62
     0
 10
0.919152
 20
119.115
 30
0.0
 11
1.05006
 21
119.202
 31
0.0
  0
LINE
  8
0
 62
     0
 10
1.05006
 20
119.202
 30
0.0
 11
1.18787
 21
119.279
 31
0.0
  0
LINE
  8
0
 62
     0
 10
1.18787
 20
119.279
 30
0.0
 11
1.32981
 21
119.344
 31
0.0
  0
LINE
  8
0
 62
     0
 10
1.32981
 20
119.344
 30
0.0
 11
1.47588
 21
119.399
 31
0.0
  0
LINE
  8
0
 62
     0
 10
1.47588
 20
119.399
 30
0.0
 11
1.62884
 21
119.441
 31
0.0
  0
LINE
  8
0
 62
     0
 10
1.62884
 20
119.441
 30
0.0
 11
1.7818
 21
119.472
 31
0.0
  0
LINE
  8
0
 62
     0
 10
1.7818
 20
119.472
 30
0.0
 11
1.9389
 21
119.49
 31
0.0
  0
LINE
  8
0
 62
     0
 10
1.9389
 20
119.49
 30
0.0
 11
2.096
 21
119.496
 31
0.0
  0
LINE
  8
0
 62
     0
 10
2.096
 20
119.496
 30
0.0
 11
150.497
 21
119.496
 31
0.0
  0
LINE
  8
0
 62
     0
 10
2.62103
 20
16.7225
 30
0.0
 11
16.6205
 21
16.7225
 31
0.0
  0
LINE
  8
0
 62
     0
 10
16.6205
 20
16.7225
 30
0.0
 11
16.6205
 21
2.72162
 31
0.0
  0
LINE
  8
0
 62
     0
 10
16.6205
 20
2.72162
 30
0.0
 11
2.62103
 21
2.72162
 31
0.0
  0
LINE
  8
0
 62
     0
 10
2.62103
 20
2.72162
 30
0.0
 11
2.62103
 21
16.7225
 31
0.0
  0
LINE
  8
0
 62
     0
 10
21.671
 20
16.7225
 30
0.0
 11
35.6704
 21
16.7225
 31
0.0
  0
LINE
  8
0
 62
     0
 10
35.6704
 20
16.7225
 30
0.0
 11
35.6704
 21
2.72162
 31
0.0
  0
LINE
  8
0
 62
     0
 10
35.6704
 20
2.72162
 30
0.0
 11
21.671
 21
2.72162
 31
0.0
  0
LINE
  8
0
 62
     0
 10
21.671
 20
2.72162
 30
0.0
 11
21.671
 21
16.7225
 31
0.0
  0
LINE
  8
0
 62
     0
 10
40.7211
 20
16.7225
 30
0.0
 11
54.7204
 21
16.7225
 31
0.0
  0
LINE
  8
0
 62
     0
 10
54.7204
 20
16.7225
 30
0.0
 11
54.7204
 21
2.72162
 31
0.0
  0
LINE
  8
0
 62
     0
 10
54.7204
 20
2.72162
 30
0.0
 11
40.7211
 21
2.72162
 31
0.0
  0
LINE
  8
0
 62
     0
 10
40.7211
 20
2.72162
 30
0.0
 11
40.7211
 21
16.7225
 31
0.0
  0
LINE
  8
0
 62
     0
 10
59.7711
 20
16.7225
 30
0.0
 11
73.7704
 21
16.7225
 31
0.0
  0
LINE
  8
0
 62
     0
 10
73.7704
 20
16.7225
 30
0.0
 11
73.7704
 21
2.72162
 31
0.0
  0
LINE
  8
0
 62
     0
 10
73.7704
 20
2.72162
 30
0.0
 11
59.7711
 21
2.72162
 31
0.0
  0
LINE
  8
0
 62
     0
 10
59.7711
 20
2.72162
 30
0.0
 11
59.7711
 21
16.7225
 31
0.0
  0
LINE
  8
0
 62
     0
 10
78.8211
 20
16.7225
 30
0.0
 11
92.8204
 21
16.7225
 31
0.0
  0
LINE
  8
0
 62
     0
 10
92.8204
 20
16.7225
 30
0.0
 11
92.8204
 21
2.72162
 31
0.0
  0
LINE
  8
0
 62
     0
 10
92.8204
 20
2.72162
 30
0.0
 11
78.8211
 21
2.72162
 31
0.0
  0
LINE
  8
0
 62
     0
 10
78.8211
 20
2.72162
 30
0.0
 11
78.8211
 21
16.7225
 31
0.0
  0
LINE
  8
0
 62
     0
 10
97.8697
 20
16.7225
 30
0.0
 11
111.869
 21
16.7225
 31
0.0
  0
LINE
  8
0
 62
     0
 10
111.869
 20
16.7225
 30
0.0
 11
111.869
 21
2.72162
 31
0.0
  0
LINE
  8
0
 62
     0
 10
111.869
 20
2.72162
 30
0.0
 11
97.8697
 21
2.72162
 31
0.0
  0
LINE
  8
0
 62
     0
 10
97.8697
 20
2.72162
 30
0.0
 11
97.8697
 21
16.7225
 31
0.0
  0
LINE
  8
0
 62
     0
 10
116.92
 20
16.7225
 30
0.0
 11
130.92
 21
16.7225
 31
0.0
  0
LINE
  8
0
 62
     0
 10
130.92
 20
16.7225
 30
0.0
 11
130.92
 21
2.72162
 31
0.0
  0
LINE
  8
0
 62
     0
 10
130.92
 20
2.72162
 30
0.0
 11
116.92
 21
2.72162
 31
0.0
  0
LINE
  8
0
 62
     0
 10
116.92
 20
2.72162
 30
0.0
 11
116.92
 21
16.7225
 31
0.0
  0
LINE
  8
0
 62
     0
 10
135.971
 20
16.7225
 30
0.0
 11
149.97
 21
16.7225
 31
0.0
  0
LINE
  8
0
 62
     0
 10
149.97
 20
16.7225
 30
0.0
 11
149.97
 21
2.72162
 31
0.0
  0
LINE
  8
0
 62
     0
 10
149.97
 20
2.72162
 30
0.0
 11
135.971
 21
2.72162
 31
0.0
  0
LINE
  8
0
 62
     0
 10
135.971
 20
2.72162
 30
0.0
 11
135.971
 21
16.7225
 31
0.0
  0
LINE
  8
0
 62
     0
 10
19.0665
 20
20.2434
 30
0.0
 11
18.988
 21
20.2337
 31
0.0
  0
LINE
  8
0
 62
     0
 10
18.988
 20
20.2337
 30
0.0
 11
18.9108
 21
20.2186
 31
0.0
  0
LINE
  8
0
 62
     0
 10
18.9108
 20
20.2186
 30
0.0
 11
18.835
 21
20.1979
 31
0.0
  0
LINE
  8
0
 62
     0
 10
18.835
 20
20.1979
 30
0.0
 11
18.762
 21
20.1704
 31
0.0
  0
LINE
  8
0
 62
     0
 10
18.762
 20
20.1704
 30
0.0
 11
18.6917
 21
20.1386
 31
0.0
  0
LINE
  8
0
 62
     0
 10
18.6917
 20
20.1386
 30
0.0
 11
18.6228
 21
20.0987
 31
0.0
  0
LINE
  8
0
 62
     0
 10
18.6228
 20
20.0987
 30
0.0
 11
18.5581
 21
20.056
 31
0.0
  0
LINE
  8
0
 62
     0
 10
18.5581
 20
20.056
 30
0.0
 11
18.496
 21
20.0077
 31
0.0
  0
LINE
  8
0
 62
     0
 10
18.496
 20
20.0077
 30
0.0
 11
18.4381
 21
19.954
 31
0.0
  0
LINE
  8
0
 62
     0
 10
18.4381
 20
19.954
 30
0.0
 11
18.3844
 21
19.8961
 31
0.0
  0
LINE
  8
0
 62
     0
 10
18.3844
 20
19.8961
 30
0.0
 11
18.3362
 21
19.8341
 31
0.0
  0
LINE
  8
0
 62
     0
 10
18.3362
 20
19.8341
 30
0.0
 11
18.2921
 21
19.7693
 31
0.0
  0
LINE
  8
0
 62
     0
 10
18.2921
 20
19.7693
 30
0.0
 11
18.2535
 21
19.7005
 31
0.0
  0
LINE
  8
0
 62
     0
 10
18.2535
 20
19.7005
 30
0.0
 11
18.2218
 21
19.6288
 31
0.0
  0
LINE
  8
0
 62
     0
 10
18.2218
 20
19.6288
 30
0.0
 11
18.1929
 21
19.5557
 31
0.0
  0
LINE
  8
0
 62
     0
 10
18.1929
 20
19.5557
 30
0.0
 11
18.1722
 21
19.48
 31
0.0
  0
LINE
  8
0
 62
     0
 10
18.1722
 20
19.48
 30
0.0
 11
18.157
 21
19.4028
 31
0.0
  0
LINE
  8
0
 62
     0
 10
18.157
 20
19.4028
 30
0.0
 11
18.1488
 21
19.3256
 31
0.0
  0
LINE
  8
0
 62
     0
 10
18.1488
 20
19.3256
 30
0.0
 11
18.146
 21
19.2457
 31
0.0
  0
LINE
  8
0
 62
     0
 10
18.146
 20
19.2457
 30
0.0
 11
18.1488
 21
19.1685
 31
0.0
  0
LINE
  8
0
 62
     0
 10
18.1488
 20
19.1685
 30
0.0
 11
18.157
 21
19.09
 31
0.0
  0
LINE
  8
0
 62
     0
 10
18.157
 20
19.09
 30
0.0
 11
18.1722
 21
19.0128
 31
0.0
  0
LINE
  8
0
 62
     0
 10
18.1722
 20
19.0128
 30
0.0
 11
18.1929
 21
18.937
 31
0.0
  0
LINE
  8
0
 62
     0
 10
18.1929
 20
18.937
 30
0.0
 11
18.2218
 21
18.864
 31
0.0
  0
LINE
  8
0
 62
     0
 10
18.2218
 20
18.864
 30
0.0
 11
18.2535
 21
18.7937
 31
0.0
  0
LINE
  8
0
 62
     0
 10
18.2535
 20
18.7937
 30
0.0
 11
18.2921
 21
18.7248
 31
0.0
  0
LINE
  8
0
 62
     0
 10
18.2921
 20
18.7248
 30
0.0
 11
18.3362
 21
18.6586
 31
0.0
  0
LINE
  8
0
 62
     0
 10
18.3362
 20
18.6586
 30
0.0
 11
18.3844
 21
18.5966
 31
0.0
  0
LINE
  8
0
 62
     0
 10
18.3844
 20
18.5966
 30
0.0
 11
18.4381
 21
18.5388
 31
0.0
  0
LINE
  8
0
 62
     0
 10
18.4381
 20
18.5388
 30
0.0
 11
18.496
 21
18.4864
 31
0.0
  0
LINE
  8
0
 62
     0
 10
18.496
 20
18.4864
 30
0.0
 11
18.5581
 21
18.4368
 31
0.0
  0
LINE
  8
0
 62
     0
 10
18.5581
 20
18.4368
 30
0.0
 11
18.6228
 21
18.394
 31
0.0
  0
LINE
  8
0
 62
     0
 10
18.6228
 20
18.394
 30
0.0
 11
18.6917
 21
18.3555
 31
0.0
  0
LINE
  8
0
 62
     0
 10
18.6917
 20
18.3555
 30
0.0
 11
18.762
 21
18.3238
 31
0.0
  0
LINE
  8
0
 62
     0
 10
18.762
 20
18.3238
 30
0.0
 11
18.835
 21
18.2948
 31
0.0
  0
LINE
  8
0
 62
     0
 10
18.835
 20
18.2948
 30
0.0
 11
18.9108
 21
18.2742
 31
0.0
  0
LINE
  8
0
 62
     0
 10
18.9108
 20
18.2742
 30
0.0
 11
18.988
 21
18.259
 31
0.0
  0
LINE
  8
0
 62
     0
 10
18.988
 20
18.259
 30
0.0
 11
19.0665
 21
18.2507
 31
0.0
  0
LINE
  8
0
 62
     0
 10
19.0665
 20
18.2507
 30
0.0
 11
19.1451
 21
18.2466
 31
0.0
  0
LINE
  8
0
 62
     0
 10
19.1451
 20
18.2466
 30
0.0
 11
19.2236
 21
18.2507
 31
0.0
  0
LINE
  8
0
 62
     0
 10
19.2236
 20
18.2507
 30
0.0
 11
19.3008
 21
18.259
 31
0.0
  0
LINE
  8
0
 62
     0
 10
19.3008
 20
18.259
 30
0.0
 11
19.378
 21
18.2742
 31
0.0
  0
LINE
  8
0
 62
     0
 10
19.378
 20
18.2742
 30
0.0
 11
19.4551
 21
18.2948
 31
0.0
  0
LINE
  8
0
 62
     0
 10
19.4551
 20
18.2948
 30
0.0
 11
19.5268
 21
18.3238
 31
0.0
  0
LINE
  8
0
 62
     0
 10
19.5268
 20
18.3238
 30
0.0
 11
19.5985
 21
18.3555
 31
0.0
  0
LINE
  8
0
 62
     0
 10
19.5985
 20
18.3555
 30
0.0
 11
19.6674
 21
18.394
 31
0.0
  0
LINE
  8
0
 62
     0
 10
19.6674
 20
18.394
 30
0.0
 11
19.7321
 21
18.4368
 31
0.0
  0
LINE
  8
0
 62
     0
 10
19.7321
 20
18.4368
 30
0.0
 11
19.7942
 21
18.4864
 31
0.0
  0
LINE
  8
0
 62
     0
 10
19.7942
 20
18.4864
 30
0.0
 11
19.852
 21
18.5388
 31
0.0
  0
LINE
  8
0
 62
     0
 10
19.852
 20
18.5388
 30
0.0
 11
19.9058
 21
18.5966
 31
0.0
  0
LINE
  8
0
 62
     0
 10
19.9058
 20
18.5966
 30
0.0
 11
19.954
 21
18.6586
 31
0.0
  0
LINE
  8
0
 62
     0
 10
19.954
 20
18.6586
 30
0.0
 11
19.9981
 21
18.7248
 31
0.0
  0
LINE
  8
0
 62
     0
 10
19.9981
 20
18.7248
 30
0.0
 11
20.0367
 21
18.7937
 31
0.0
  0
LINE
  8
0
 62
     0
 10
20.0367
 20
18.7937
 30
0.0
 11
20.0684
 21
18.864
 31
0.0
  0
LINE
  8
0
 62
     0
 10
20.0684
 20
18.864
 30
0.0
 11
20.0959
 21
18.937
 31
0.0
  0
LINE
  8
0
 62
     0
 10
20.0959
 20
18.937
 30
0.0
 11
20.118
 21
19.0128
 31
0.0
  0
LINE
  8
0
 62
     0
 10
20.118
 20
19.0128
 30
0.0
 11
20.1331
 21
19.09
 31
0.0
  0
LINE
  8
0
 62
     0
 10
20.1331
 20
19.09
 30
0.0
 11
20.1414
 21
19.1685
 31
0.0
  0
LINE
  8
0
 62
     0
 10
20.1414
 20
19.1685
 30
0.0
 11
20.1456
 21
19.2457
 31
0.0
  0
LINE
  8
0
 62
     0
 10
20.1456
 20
19.2457
 30
0.0
 11
20.1414
 21
19.3256
 31
0.0
  0
LINE
  8
0
 62
     0
 10
20.1414
 20
19.3256
 30
0.0
 11
20.1331
 21
19.4028
 31
0.0
  0
LINE
  8
0
 62
     0
 10
20.1331
 20
19.4028
 30
0.0
 11
20.118
 21
19.48
 31
0.0
  0
LINE
  8
0
 62
     0
 10
20.118
 20
19.48
 30
0.0
 11
20.0959
 21
19.5557
 31
0.0
  0
LINE
  8
0
 62
     0
 10
20.0959
 20
19.5557
 30
0.0
 11
20.0684
 21
19.6288
 31
0.0
  0
LINE
  8
0
 62
     0
 10
20.0684
 20
19.6288
 30
0.0
 11
20.0367
 21
19.7005
 31
0.0
  0
LINE
  8
0
 62
     0
 10
20.0367
 20
19.7005
 30
0.0
 11
19.9981
 21
19.7693
 31
0.0
  0
LINE
  8
0
 62
     0
 10
19.9981
 20
19.7693
 30
0.0
 11
19.954
 21
19.8341
 31
0.0
  0
LINE
  8
0
 62
     0
 10
19.954
 20
19.8341
 30
0.0
 11
19.9058
 21
19.8961
 31
0.0
  0
LINE
  8
0
 62
     0
 10
19.9058
 20
19.8961
 30
0.0
 11
19.852
 21
19.954
 31
0.0
  0
LINE
  8
0
 62
     0
 10
19.852
 20
19.954
 30
0.0
 11
19.7942
 21
20.0077
 31
0.0
  0
LINE
  8
0
 62
     0
 10
19.7942
 20
20.0077
 30
0.0
 11
19.7321
 21
20.056
 31
0.0
  0
LINE
  8
0
 62
     0
 10
19.7321
 20
20.056
 30
0.0
 11
19.6674
 21
20.0987
 31
0.0
  0
LINE
  8
0
 62
     0
 10
19.6674
 20
20.0987
 30
0.0
 11
19.5985
 21
20.1386
 31
0.0
  0
LINE
  8
0
 62
     0
 10
19.5985
 20
20.1386
 30
0.0
 11
19.5268
 21
20.1704
 31
0.0
  0
LINE
  8
0
 62
     0
 10
19.5268
 20
20.1704
 30
0.0
 11
19.4551
 21
20.1979
 31
0.0
  0
LINE
  8
0
 62
     0
 10
19.4551
 20
20.1979
 30
0.0
 11
19.378
 21
20.2186
 31
0.0
  0
LINE
  8
0
 62
     0
 10
19.378
 20
20.2186
 30
0.0
 11
19.3008
 21
20.2337
 31
0.0
  0
LINE
  8
0
 62
     0
 10
19.3008
 20
20.2337
 30
0.0
 11
19.2236
 21
20.2434
 31
0.0
  0
LINE
  8
0
 62
     0
 10
19.2236
 20
20.2434
 30
0.0
 11
19.1451
 21
20.2461
 31
0.0
  0
LINE
  8
0
 62
     0
 10
19.1451
 20
20.2461
 30
0.0
 11
19.0665
 21
20.2434
 31
0.0
  0
LINE
  8
0
 62
     0
 10
114.317
 20
20.2434
 30
0.0
 11
114.238
 21
20.2337
 31
0.0
  0
LINE
  8
0
 62
     0
 10
114.238
 20
20.2337
 30
0.0
 11
114.161
 21
20.2186
 31
0.0
  0
LINE
  8
0
 62
     0
 10
114.161
 20
20.2186
 30
0.0
 11
114.085
 21
20.1979
 31
0.0
  0
LINE
  8
0
 62
     0
 10
114.085
 20
20.1979
 30
0.0
 11
114.012
 21
20.1704
 31
0.0
  0
LINE
  8
0
 62
     0
 10
114.012
 20
20.1704
 30
0.0
 11
113.942
 21
20.1386
 31
0.0
  0
LINE
  8
0
 62
     0
 10
113.942
 20
20.1386
 30
0.0
 11
113.873
 21
20.0987
 31
0.0
  0
LINE
  8
0
 62
     0
 10
113.873
 20
20.0987
 30
0.0
 11
113.808
 21
20.056
 31
0.0
  0
LINE
  8
0
 62
     0
 10
113.808
 20
20.056
 30
0.0
 11
113.746
 21
20.0077
 31
0.0
  0
LINE
  8
0
 62
     0
 10
113.746
 20
20.0077
 30
0.0
 11
113.688
 21
19.954
 31
0.0
  0
LINE
  8
0
 62
     0
 10
113.688
 20
19.954
 30
0.0
 11
113.634
 21
19.8961
 31
0.0
  0
LINE
  8
0
 62
     0
 10
113.634
 20
19.8961
 30
0.0
 11
113.585
 21
19.8341
 31
0.0
  0
LINE
  8
0
 62
     0
 10
113.585
 20
19.8341
 30
0.0
 11
113.542
 21
19.7693
 31
0.0
  0
LINE
  8
0
 62
     0
 10
113.542
 20
19.7693
 30
0.0
 11
113.503
 21
19.7005
 31
0.0
  0
LINE
  8
0
 62
     0
 10
113.503
 20
19.7005
 30
0.0
 11
113.472
 21
19.6288
 31
0.0
  0
LINE
  8
0
 62
     0
 10
113.472
 20
19.6288
 30
0.0
 11
113.443
 21
19.5557
 31
0.0
  0
LINE
  8
0
 62
     0
 10
113.443
 20
19.5557
 30
0.0
 11
113.422
 21
19.48
 31
0.0
  0
LINE
  8
0
 62
     0
 10
113.422
 20
19.48
 30
0.0
 11
113.407
 21
19.4028
 31
0.0
  0
LINE
  8
0
 62
     0
 10
113.407
 20
19.4028
 30
0.0
 11
113.399
 21
19.3256
 31
0.0
  0
LINE
  8
0
 62
     0
 10
113.399
 20
19.3256
 30
0.0
 11
113.396
 21
19.2457
 31
0.0
  0
LINE
  8
0
 62
     0
 10
113.396
 20
19.2457
 30
0.0
 11
113.399
 21
19.1685
 31
0.0
  0
LINE
  8
0
 62
     0
 10
113.399
 20
19.1685
 30
0.0
 11
113.407
 21
19.09
 31
0.0
  0
LINE
  8
0
 62
     0
 10
113.407
 20
19.09
 30
0.0
 11
113.422
 21
19.0128
 31
0.0
  0
LINE
  8
0
 62
     0
 10
113.422
 20
19.0128
 30
0.0
 11
113.443
 21
18.937
 31
0.0
  0
LINE
  8
0
 62
     0
 10
113.443
 20
18.937
 30
0.0
 11
113.472
 21
18.864
 31
0.0
  0
LINE
  8
0
 62
     0
 10
113.472
 20
18.864
 30
0.0
 11
113.503
 21
18.7937
 31
0.0
  0
LINE
  8
0
 62
     0
 10
113.503
 20
18.7937
 30
0.0
 11
113.542
 21
18.7248
 31
0.0
  0
LINE
  8
0
 62
     0
 10
113.542
 20
18.7248
 30
0.0
 11
113.585
 21
18.6586
 31
0.0
  0
LINE
  8
0
 62
     0
 10
113.585
 20
18.6586
 30
0.0
 11
113.634
 21
18.5966
 31
0.0
  0
LINE
  8
0
 62
     0
 10
113.634
 20
18.5966
 30
0.0
 11
113.688
 21
18.5388
 31
0.0
  0
LINE
  8
0
 62
     0
 10
113.688
 20
18.5388
 30
0.0
 11
113.746
 21
18.4864
 31
0.0
  0
LINE
  8
0
 62
     0
 10
113.746
 20
18.4864
 30
0.0
 11
113.808
 21
18.4368
 31
0.0
  0
LINE
  8
0
 62
     0
 10
113.808
 20
18.4368
 30
0.0
 11
113.873
 21
18.394
 31
0.0
  0
LINE
  8
0
 62
     0
 10
113.873
 20
18.394
 30
0.0
 11
113.942
 21
18.3555
 31
0.0
  0
LINE
  8
0
 62
     0
 10
113.942
 20
18.3555
 30
0.0
 11
114.012
 21
18.3238
 31
0.0
  0
LINE
  8
0
 62
     0
 10
114.012
 20
18.3238
 30
0.0
 11
114.085
 21
18.2948
 31
0.0
  0
LINE
  8
0
 62
     0
 10
114.085
 20
18.2948
 30
0.0
 11
114.161
 21
18.2742
 31
0.0
  0
LINE
  8
0
 62
     0
 10
114.161
 20
18.2742
 30
0.0
 11
114.238
 21
18.259
 31
0.0
  0
LINE
  8
0
 62
     0
 10
114.238
 20
18.259
 30
0.0
 11
114.317
 21
18.2507
 31
0.0
  0
LINE
  8
0
 62
     0
 10
114.317
 20
18.2507
 30
0.0
 11
114.395
 21
18.2466
 31
0.0
  0
LINE
  8
0
 62
     0
 10
114.395
 20
18.2466
 30
0.0
 11
114.474
 21
18.2507
 31
0.0
  0
LINE
  8
0
 62
     0
 10
114.474
 20
18.2507
 30
0.0
 11
114.551
 21
18.259
 31
0.0
  0
LINE
  8
0
 62
     0
 10
114.551
 20
18.259
 30
0.0
 11
114.628
 21
18.2742
 31
0.0
  0
LINE
  8
0
 62
     0
 10
114.628
 20
18.2742
 30
0.0
 11
114.705
 21
18.2948
 31
0.0
  0
LINE
  8
0
 62
     0
 10
114.705
 20
18.2948
 30
0.0
 11
114.777
 21
18.3238
 31
0.0
  0
LINE
  8
0
 62
     0
 10
114.777
 20
18.3238
 30
0.0
 11
114.849
 21
18.3555
 31
0.0
  0
LINE
  8
0
 62
     0
 10
114.849
 20
18.3555
 30
0.0
 11
114.917
 21
18.394
 31
0.0
  0
LINE
  8
0
 62
     0
 10
114.917
 20
18.394
 30
0.0
 11
114.982
 21
18.4368
 31
0.0
  0
LINE
  8
0
 62
     0
 10
114.982
 20
18.4368
 30
0.0
 11
115.044
 21
18.4864
 31
0.0
  0
LINE
  8
0
 62
     0
 10
115.044
 20
18.4864
 30
0.0
 11
115.102
 21
18.5388
 31
0.0
  0
LINE
  8
0
 62
     0
 10
115.102
 20
18.5388
 30
0.0
 11
115.156
 21
18.5966
 31
0.0
  0
LINE
  8
0
 62
     0
 10
115.156
 20
18.5966
 30
0.0
 11
115.204
 21
18.6586
 31
0.0
  0
LINE
  8
0
 62
     0
 10
115.204
 20
18.6586
 30
0.0
 11
115.248
 21
18.7248
 31
0.0
  0
LINE
  8
0
 62
     0
 10
115.248
 20
18.7248
 30
0.0
 11
115.287
 21
18.7937
 31
0.0
  0
LINE
  8
0
 62
     0
 10
115.287
 20
18.7937
 30
0.0
 11
115.318
 21
18.864
 31
0.0
  0
LINE
  8
0
 62
     0
 10
115.318
 20
18.864
 30
0.0
 11
115.346
 21
18.937
 31
0.0
  0
LINE
  8
0
 62
     0
 10
115.346
 20
18.937
 30
0.0
 11
115.368
 21
19.0128
 31
0.0
  0
LINE
  8
0
 62
     0
 10
115.368
 20
19.0128
 30
0.0
 11
115.383
 21
19.09
 31
0.0
  0
LINE
  8
0
 62
     0
 10
115.383
 20
19.09
 30
0.0
 11
115.391
 21
19.1685
 31
0.0
  0
LINE
  8
0
 62
     0
 10
115.391
 20
19.1685
 30
0.0
 11
115.395
 21
19.2457
 31
0.0
  0
LINE
  8
0
 62
     0
 10
115.395
 20
19.2457
 30
0.0
 11
115.391
 21
19.3256
 31
0.0
  0
LINE
  8
0
 62
     0
 10
115.391
 20
19.3256
 30
0.0
 11
115.383
 21
19.4028
 31
0.0
  0
LINE
  8
0
 62
     0
 10
115.383
 20
19.4028
 30
0.0
 11
115.368
 21
19.48
 31
0.0
  0
LINE
  8
0
 62
     0
 10
115.368
 20
19.48
 30
0.0
 11
115.346
 21
19.5557
 31
0.0
  0
LINE
  8
0
 62
     0
 10
115.346
 20
19.5557
 30
0.0
 11
115.318
 21
19.6288
 31
0.0
  0
LINE
  8
0
 62
     0
 10
115.318
 20
19.6288
 30
0.0
 11
115.287
 21
19.7005
 31
0.0
  0
LINE
  8
0
 62
     0
 10
115.287
 20
19.7005
 30
0.0
 11
115.248
 21
19.7693
 31
0.0
  0
LINE
  8
0
 62
     0
 10
115.248
 20
19.7693
 30
0.0
 11
115.204
 21
19.8341
 31
0.0
  0
LINE
  8
0
 62
     0
 10
115.204
 20
19.8341
 30
0.0
 11
115.156
 21
19.8961
 31
0.0
  0
LINE
  8
0
 62
     0
 10
115.156
 20
19.8961
 30
0.0
 11
115.102
 21
19.954
 31
0.0
  0
LINE
  8
0
 62
     0
 10
115.102
 20
19.954
 30
0.0
 11
115.044
 21
20.0077
 31
0.0
  0
LINE
  8
0
 62
     0
 10
115.044
 20
20.0077
 30
0.0
 11
114.982
 21
20.056
 31
0.0
  0
LINE
  8
0
 62
     0
 10
114.982
 20
20.056
 30
0.0
 11
114.917
 21
20.0987
 31
0.0
  0
LINE
  8
0
 62
     0
 10
114.917
 20
20.0987
 30
0.0
 11
114.849
 21
20.1386
 31
0.0
  0
LINE
  8
0
 62
     0
 10
114.849
 20
20.1386
 30
0.0
 11
114.777
 21
20.1704
 31
0.0
  0
LINE
  8
0
 62
     0
 10
114.777
 20
20.1704
 30
0.0
 11
114.705
 21
20.1979
 31
0.0
  0
LINE
  8
0
 62
     0
 10
114.705
 20
20.1979
 30
0.0
 11
114.628
 21
20.2186
 31
0.0
  0
LINE
  8
0
 62
     0
 10
114.628
 20
20.2186
 30
0.0
 11
114.551
 21
20.2337
 31
0.0
  0
LINE
  8
0
 62
     0
 10
114.551
 20
20.2337
 30
0.0
 11
114.474
 21
20.2434
 31
0.0
  0
LINE
  8
0
 62
     0
 10
114.474
 20
20.2434
 30
0.0
 11
114.395
 21
20.2461
 31
0.0
  0
LINE
  8
0
 62
     0
 10
114.395
 20
20.2461
 30
0.0
 11
114.317
 21
20.2434
 31
0.0
  0
LINE
  8
0
 62
     0
 10
2.62103
 20
35.771
 30
0.0
 11
16.6205
 21
35.771
 31
0.0
  0
LINE
  8
0
 62
     0
 10
16.6205
 20
35.771
 30
0.0
 11
16.6205
 21
21.7716
 31
0.0
  0
LINE
  8
0
 62
     0
 10
16.6205
 20
21.7716
 30
0.0
 11
2.62103
 21
21.7716
 31
0.0
  0
LINE
  8
0
 62
     0
 10
2.62103
 20
21.7716
 30
0.0
 11
2.62103
 21
35.771
 31
0.0
  0
LINE
  8
0
 62
     0
 10
21.671
 20
35.771
 30
0.0
 11
35.6704
 21
35.771
 31
0.0
  0
LINE
  8
0
 62
     0
 10
35.6704
 20
35.771
 30
0.0
 11
35.6704
 21
21.7716
 31
0.0
  0
LINE
  8
0
 62
     0
 10
35.6704
 20
21.7716
 30
0.0
 11
21.671
 21
21.7716
 31
0.0
  0
LINE
  8
0
 62
     0
 10
21.671
 20
21.7716
 30
0.0
 11
21.671
 21
35.771
 31
0.0
  0
LINE
  8
0
 62
     0
 10
40.7211
 20
35.771
 30
0.0
 11
54.7204
 21
35.771
 31
0.0
  0
LINE
  8
0
 62
     0
 10
54.7204
 20
35.771
 30
0.0
 11
54.7204
 21
21.7716
 31
0.0
  0
LINE
  8
0
 62
     0
 10
54.7204
 20
21.7716
 30
0.0
 11
40.7211
 21
21.7716
 31
0.0
  0
LINE
  8
0
 62
     0
 10
40.7211
 20
21.7716
 30
0.0
 11
40.7211
 21
35.771
 31
0.0
  0
LINE
  8
0
 62
     0
 10
59.7711
 20
35.771
 30
0.0
 11
73.7704
 21
35.771
 31
0.0
  0
LINE
  8
0
 62
     0
 10
73.7704
 20
35.771
 30
0.0
 11
73.7704
 21
21.7716
 31
0.0
  0
LINE
  8
0
 62
     0
 10
73.7704
 20
21.7716
 30
0.0
 11
59.7711
 21
21.7716
 31
0.0
  0
LINE
  8
0
 62
     0
 10
59.7711
 20
21.7716
 30
0.0
 11
59.7711
 21
35.771
 31
0.0
  0
LINE
  8
0
 62
     0
 10
78.8211
 20
35.771
 30
0.0
 11
92.8204
 21
35.771
 31
0.0
  0
LINE
  8
0
 62
     0
 10
92.8204
 20
35.771
 30
0.0
 11
92.8204
 21
21.7716
 31
0.0
  0
LINE
  8
0
 62
     0
 10
92.8204
 20
21.7716
 30
0.0
 11
78.8211
 21
21.7716
 31
0.0
  0
LINE
  8
0
 62
     0
 10
78.8211
 20
21.7716
 30
0.0
 11
78.8211
 21
35.771
 31
0.0
  0
LINE
  8
0
 62
     0
 10
97.8697
 20
35.771
 30
0.0
 11
111.869
 21
35.771
 31
0.0
  0
LINE
  8
0
 62
     0
 10
111.869
 20
35.771
 30
0.0
 11
111.869
 21
21.7716
 31
0.0
  0
LINE
  8
0
 62
     0
 10
111.869
 20
21.7716
 30
0.0
 11
97.8697
 21
21.7716
 31
0.0
  0
LINE
  8
0
 62
     0
 10
97.8697
 20
21.7716
 30
0.0
 11
97.8697
 21
35.771
 31
0.0
  0
LINE
  8
0
 62
     0
 10
116.92
 20
35.771
 30
0.0
 11
130.92
 21
35.771
 31
0.0
  0
LINE
  8
0
 62
     0
 10
130.92
 20
35.771
 30
0.0
 11
130.92
 21
21.7716
 31
0.0
  0
LINE
  8
0
 62
     0
 10
130.92
 20
21.7716
 30
0.0
 11
116.92
 21
21.7716
 31
0.0
  0
LINE
  8
0
 62
     0
 10
116.92
 20
21.7716
 30
0.0
 11
116.92
 21
35.771
 31
0.0
  0
LINE
  8
0
 62
     0
 10
135.971
 20
35.771
 30
0.0
 11
149.97
 21
35.771
 31
0.0
  0
LINE
  8
0
 62
     0
 10
149.97
 20
35.771
 30
0.0
 11
149.97
 21
21.7716
 31
0.0
  0
LINE
  8
0
 62
     0
 10
149.97
 20
21.7716
 30
0.0
 11
135.971
 21
21.7716
 31
0.0
  0
LINE
  8
0
 62
     0
 10
135.971
 20
21.7716
 30
0.0
 11
135.971
 21
35.771
 31
0.0
  0
LINE
  8
0
 62
     0
 10
57.1666
 20
39.2934
 30
0.0
 11
57.0879
 21
39.2836
 31
0.0
  0
LINE
  8
0
 62
     0
 10
57.0879
 20
39.2836
 30
0.0
 11
57.0107
 21
39.2688
 31
0.0
  0
LINE
  8
0
 62
     0
 10
57.0107
 20
39.2688
 30
0.0
 11
56.9352
 21
39.2479
 31
0.0
  0
LINE
  8
0
 62
     0
 10
56.9352
 20
39.2479
 30
0.0
 11
56.8621
 21
39.2204
 31
0.0
  0
LINE
  8
0
 62
     0
 10
56.8621
 20
39.2204
 30
0.0
 11
56.7916
 21
39.1887
 31
0.0
  0
LINE
  8
0
 62
     0
 10
56.7916
 20
39.1887
 30
0.0
 11
56.7228
 21
39.1488
 31
0.0
  0
LINE
  8
0
 62
     0
 10
56.7228
 20
39.1488
 30
0.0
 11
56.6579
 21
39.1061
 31
0.0
  0
LINE
  8
0
 62
     0
 10
56.6579
 20
39.1061
 30
0.0
 11
56.5961
 21
39.0578
 31
0.0
  0
LINE
  8
0
 62
     0
 10
56.5961
 20
39.0578
 30
0.0
 11
56.5383
 21
39.0042
 31
0.0
  0
LINE
  8
0
 62
     0
 10
56.5383
 20
39.0042
 30
0.0
 11
56.4843
 21
38.946
 31
0.0
  0
LINE
  8
0
 62
     0
 10
56.4843
 20
38.946
 30
0.0
 11
56.4349
 21
38.8842
 31
0.0
  0
LINE
  8
0
 62
     0
 10
56.4349
 20
38.8842
 30
0.0
 11
56.3922
 21
38.8193
 31
0.0
  0
LINE
  8
0
 62
     0
 10
56.3922
 20
38.8193
 30
0.0
 11
56.3534
 21
38.7505
 31
0.0
  0
LINE
  8
0
 62
     0
 10
56.3534
 20
38.7505
 30
0.0
 11
56.3217
 21
38.6789
 31
0.0
  0
LINE
  8
0
 62
     0
 10
56.3217
 20
38.6789
 30
0.0
 11
56.2928
 21
38.6059
 31
0.0
  0
LINE
  8
0
 62
     0
 10
56.2928
 20
38.6059
 30
0.0
 11
56.2723
 21
38.53
 31
0.0
  0
LINE
  8
0
 62
     0
 10
56.2723
 20
38.53
 30
0.0
 11
56.2571
 21
38.4528
 31
0.0
  0
LINE
  8
0
 62
     0
 10
56.2571
 20
38.4528
 30
0.0
 11
56.2487
 21
38.3755
 31
0.0
  0
LINE
  8
0
 62
     0
 10
56.2487
 20
38.3755
 30
0.0
 11
56.2462
 21
38.2958
 31
0.0
  0
LINE
  8
0
 62
     0
 10
56.2462
 20
38.2958
 30
0.0
 11
56.2487
 21
38.2185
 31
0.0
  0
LINE
  8
0
 62
     0
 10
56.2487
 20
38.2185
 30
0.0
 11
56.2571
 21
38.1399
 31
0.0
  0
LINE
  8
0
 62
     0
 10
56.2571
 20
38.1399
 30
0.0
 11
56.2723
 21
38.063
 31
0.0
  0
LINE
  8
0
 62
     0
 10
56.2723
 20
38.063
 30
0.0
 11
56.2928
 21
37.9871
 31
0.0
  0
LINE
  8
0
 62
     0
 10
56.2928
 20
37.9871
 30
0.0
 11
56.3217
 21
37.9141
 31
0.0
  0
LINE
  8
0
 62
     0
 10
56.3217
 20
37.9141
 30
0.0
 11
56.3534
 21
37.8435
 31
0.0
  0
LINE
  8
0
 62
     0
 10
56.3534
 20
37.8435
 30
0.0
 11
56.3922
 21
37.7747
 31
0.0
  0
LINE
  8
0
 62
     0
 10
56.3922
 20
37.7747
 30
0.0
 11
56.4349
 21
37.7088
 31
0.0
  0
LINE
  8
0
 62
     0
 10
56.4349
 20
37.7088
 30
0.0
 11
56.4843
 21
37.6467
 31
0.0
  0
LINE
  8
0
 62
     0
 10
56.4843
 20
37.6467
 30
0.0
 11
56.5383
 21
37.5888
 31
0.0
  0
LINE
  8
0
 62
     0
 10
56.5383
 20
37.5888
 30
0.0
 11
56.5961
 21
37.5363
 31
0.0
  0
LINE
  8
0
 62
     0
 10
56.5961
 20
37.5363
 30
0.0
 11
56.6579
 21
37.4869
 31
0.0
  0
LINE
  8
0
 62
     0
 10
56.6579
 20
37.4869
 30
0.0
 11
56.7228
 21
37.4442
 31
0.0
  0
LINE
  8
0
 62
     0
 10
56.7228
 20
37.4442
 30
0.0
 11
56.7916
 21
37.4054
 31
0.0
  0
LINE
  8
0
 62
     0
 10
56.7916
 20
37.4054
 30
0.0
 11
56.8621
 21
37.3736
 31
0.0
  0
LINE
  8
0
 62
     0
 10
56.8621
 20
37.3736
 30
0.0
 11
56.9352
 21
37.3447
 31
0.0
  0
LINE
  8
0
 62
     0
 10
56.9352
 20
37.3447
 30
0.0
 11
57.0107
 21
37.3242
 31
0.0
  0
LINE
  8
0
 62
     0
 10
57.0107
 20
37.3242
 30
0.0
 11
57.0879
 21
37.3091
 31
0.0
  0
LINE
  8
0
 62
     0
 10
57.0879
 20
37.3091
 30
0.0
 11
57.1666
 21
37.3006
 31
0.0
  0
LINE
  8
0
 62
     0
 10
57.1666
 20
37.3006
 30
0.0
 11
57.2453
 21
37.2967
 31
0.0
  0
LINE
  8
0
 62
     0
 10
57.2453
 20
37.2967
 30
0.0
 11
57.3236
 21
37.3006
 31
0.0
  0
LINE
  8
0
 62
     0
 10
57.3236
 20
37.3006
 30
0.0
 11
57.4008
 21
37.3091
 31
0.0
  0
LINE
  8
0
 62
     0
 10
57.4008
 20
37.3091
 30
0.0
 11
57.4781
 21
37.3242
 31
0.0
  0
LINE
  8
0
 62
     0
 10
57.4781
 20
37.3242
 30
0.0
 11
57.555
 21
37.3447
 31
0.0
  0
LINE
  8
0
 62
     0
 10
57.555
 20
37.3447
 30
0.0
 11
57.627
 21
37.3736
 31
0.0
  0
LINE
  8
0
 62
     0
 10
57.627
 20
37.3736
 30
0.0
 11
57.6986
 21
37.4054
 31
0.0
  0
LINE
  8
0
 62
     0
 10
57.6986
 20
37.4054
 30
0.0
 11
57.7674
 21
37.4442
 31
0.0
  0
LINE
  8
0
 62
     0
 10
57.7674
 20
37.4442
 30
0.0
 11
57.8323
 21
37.4869
 31
0.0
  0
LINE
  8
0
 62
     0
 10
57.8323
 20
37.4869
 30
0.0
 11
57.894
 21
37.5363
 31
0.0
  0
LINE
  8
0
 62
     0
 10
57.894
 20
37.5363
 30
0.0
 11
57.9519
 21
37.5888
 31
0.0
  0
LINE
  8
0
 62
     0
 10
57.9519
 20
37.5888
 30
0.0
 11
58.0058
 21
37.6467
 31
0.0
  0
LINE
  8
0
 62
     0
 10
58.0058
 20
37.6467
 30
0.0
 11
58.0542
 21
37.7088
 31
0.0
  0
LINE
  8
0
 62
     0
 10
58.0542
 20
37.7088
 30
0.0
 11
58.0983
 21
37.7747
 31
0.0
  0
LINE
  8
0
 62
     0
 10
58.0983
 20
37.7747
 30
0.0
 11
58.1367
 21
37.8435
 31
0.0
  0
LINE
  8
0
 62
     0
 10
58.1367
 20
37.8435
 30
0.0
 11
58.1685
 21
37.9141
 31
0.0
  0
LINE
  8
0
 62
     0
 10
58.1685
 20
37.9141
 30
0.0
 11
58.196
 21
37.9871
 31
0.0
  0
LINE
  8
0
 62
     0
 10
58.196
 20
37.9871
 30
0.0
 11
58.2179
 21
38.063
 31
0.0
  0
LINE
  8
0
 62
     0
 10
58.2179
 20
38.063
 30
0.0
 11
58.233
 21
38.1399
 31
0.0
  0
LINE
  8
0
 62
     0
 10
58.233
 20
38.1399
 30
0.0
 11
58.2415
 21
38.2185
 31
0.0
  0
LINE
  8
0
 62
     0
 10
58.2415
 20
38.2185
 30
0.0
 11
58.2443
 21
38.2958
 31
0.0
  0
LINE
  8
0
 62
     0
 10
58.2443
 20
38.2958
 30
0.0
 11
58.2415
 21
38.3755
 31
0.0
  0
LINE
  8
0
 62
     0
 10
58.2415
 20
38.3755
 30
0.0
 11
58.233
 21
38.4528
 31
0.0
  0
LINE
  8
0
 62
     0
 10
58.233
 20
38.4528
 30
0.0
 11
58.2179
 21
38.53
 31
0.0
  0
LINE
  8
0
 62
     0
 10
58.2179
 20
38.53
 30
0.0
 11
58.196
 21
38.6059
 31
0.0
  0
LINE
  8
0
 62
     0
 10
58.196
 20
38.6059
 30
0.0
 11
58.1685
 21
38.6789
 31
0.0
  0
LINE
  8
0
 62
     0
 10
58.1685
 20
38.6789
 30
0.0
 11
58.1367
 21
38.7505
 31
0.0
  0
LINE
  8
0
 62
     0
 10
58.1367
 20
38.7505
 30
0.0
 11
58.0983
 21
38.8193
 31
0.0
  0
LINE
  8
0
 62
     0
 10
58.0983
 20
38.8193
 30
0.0
 11
58.0542
 21
38.8842
 31
0.0
  0
LINE
  8
0
 62
     0
 10
58.0542
 20
38.8842
 30
0.0
 11
58.0058
 21
38.946
 31
0.0
  0
LINE
  8
0
 62
     0
 10
58.0058
 20
38.946
 30
0.0
 11
57.9519
 21
39.0042
 31
0.0
  0
LINE
  8
0
 62
     0
 10
57.9519
 20
39.0042
 30
0.0
 11
57.894
 21
39.0578
 31
0.0
  0
LINE
  8
0
 62
     0
 10
57.894
 20
39.0578
 30
0.0
 11
57.8323
 21
39.1061
 31
0.0
  0
LINE
  8
0
 62
     0
 10
57.8323
 20
39.1061
 30
0.0
 11
57.7674
 21
39.1488
 31
0.0
  0
LINE
  8
0
 62
     0
 10
57.7674
 20
39.1488
 30
0.0
 11
57.6986
 21
39.1887
 31
0.0
  0
LINE
  8
0
 62
     0
 10
57.6986
 20
39.1887
 30
0.0
 11
57.627
 21
39.2204
 31
0.0
  0
LINE
  8
0
 62
     0
 10
57.627
 20
39.2204
 30
0.0
 11
57.555
 21
39.2479
 31
0.0
  0
LINE
  8
0
 62
     0
 10
57.555
 20
39.2479
 30
0.0
 11
57.4781
 21
39.2688
 31
0.0
  0
LINE
  8
0
 62
     0
 10
57.4781
 20
39.2688
 30
0.0
 11
57.4008
 21
39.2836
 31
0.0
  0
LINE
  8
0
 62
     0
 10
57.4008
 20
39.2836
 30
0.0
 11
57.3236
 21
39.2934
 31
0.0
  0
LINE
  8
0
 62
     0
 10
57.3236
 20
39.2934
 30
0.0
 11
57.2453
 21
39.2963
 31
0.0
  0
LINE
  8
0
 62
     0
 10
57.2453
 20
39.2963
 30
0.0
 11
57.1666
 21
39.2934
 31
0.0
  0
LINE
  8
0
 62
     0
 10
2.62103
 20
54.821
 30
0.0
 11
16.6205
 21
54.821
 31
0.0
  0
LINE
  8
0
 62
     0
 10
16.6205
 20
54.821
 30
0.0
 11
16.6205
 21
40.8217
 31
0.0
  0
LINE
  8
0
 62
     0
 10
16.6205
 20
40.8217
 30
0.0
 11
2.62103
 21
40.8217
 31
0.0
  0
LINE
  8
0
 62
     0
 10
2.62103
 20
40.8217
 30
0.0
 11
2.62103
 21
54.821
 31
0.0
  0
LINE
  8
0
 62
     0
 10
21.671
 20
54.821
 30
0.0
 11
35.6704
 21
54.821
 31
0.0
  0
LINE
  8
0
 62
     0
 10
35.6704
 20
54.821
 30
0.0
 11
35.6704
 21
40.8217
 31
0.0
  0
LINE
  8
0
 62
     0
 10
35.6704
 20
40.8217
 30
0.0
 11
21.671
 21
40.8217
 31
0.0
  0
LINE
  8
0
 62
     0
 10
21.671
 20
40.8217
 30
0.0
 11
21.671
 21
54.821
 31
0.0
  0
LINE
  8
0
 62
     0
 10
40.7211
 20
54.821
 30
0.0
 11
54.7204
 21
54.821
 31
0.0
  0
LINE
  8
0
 62
     0
 10
54.7204
 20
54.821
 30
0.0
 11
54.7204
 21
40.8217
 31
0.0
  0
LINE
  8
0
 62
     0
 10
54.7204
 20
40.8217
 30
0.0
 11
40.7211
 21
40.8217
 31
0.0
  0
LINE
  8
0
 62
     0
 10
40.7211
 20
40.8217
 30
0.0
 11
40.7211
 21
54.821
 31
0.0
  0
LINE
  8
0
 62
     0
 10
59.7711
 20
54.821
 30
0.0
 11
73.7704
 21
54.821
 31
0.0
  0
LINE
  8
0
 62
     0
 10
73.7704
 20
54.821
 30
0.0
 11
73.7704
 21
40.8217
 31
0.0
  0
LINE
  8
0
 62
     0
 10
73.7704
 20
40.8217
 30
0.0
 11
59.7711
 21
40.8217
 31
0.0
  0
LINE
  8
0
 62
     0
 10
59.7711
 20
40.8217
 30
0.0
 11
59.7711
 21
54.821
 31
0.0
  0
LINE
  8
0
 62
     0
 10
78.8211
 20
54.821
 30
0.0
 11
92.8204
 21
54.821
 31
0.0
  0
LINE
  8
0
 62
     0
 10
92.8204
 20
54.821
 30
0.0
 11
92.8204
 21
40.8217
 31
0.0
  0
LINE
  8
0
 62
     0
 10
92.8204
 20
40.8217
 30
0.0
 11
78.8211
 21
40.8217
 31
0.0
  0
LINE
  8
0
 62
     0
 10
78.8211
 20
40.8217
 30
0.0
 11
78.8211
 21
54.821
 31
0.0
  0
LINE
  8
0
 62
     0
 10
97.8697
 20
54.821
 30
0.0
 11
111.869
 21
54.821
 31
0.0
  0
LINE
  8
0
 62
     0
 10
111.869
 20
54.821
 30
0.0
 11
111.869
 21
40.8217
 31
0.0
  0
LINE
  8
0
 62
     0
 10
111.869
 20
40.8217
 30
0.0
 11
97.8697
 21
40.8217
 31
0.0
  0
LINE
  8
0
 62
     0
 10
97.8697
 20
40.8217
 30
0.0
 11
97.8697
 21
54.821
 31
0.0
  0
LINE
  8
0
 62
     0
 10
116.92
 20
54.821
 30
0.0
 11
130.92
 21
54.821
 31
0.0
  0
LINE
  8
0
 62
     0
 10
130.92
 20
54.821
 30
0.0
 11
130.92
 21
40.8217
 31
0.0
  0
LINE
  8
0
 62
     0
 10
130.92
 20
40.8217
 30
0.0
 11
116.92
 21
40.8217
 31
0.0
  0
LINE
  8
0
 62
     0
 10
116.92
 20
40.8217
 30
0.0
 11
116.92
 21
54.821
 31
0.0
  0
LINE
  8
0
 62
     0
 10
135.971
 20
54.821
 30
0.0
 11
149.97
 21
54.821
 31
0.0
  0
LINE
  8
0
 62
     0
 10
149.97
 20
54.821
 30
0.0
 11
149.97
 21
40.8217
 31
0.0
  0
LINE
  8
0
 62
     0
 10
149.97
 20
40.8217
 30
0.0
 11
135.971
 21
40.8217
 31
0.0
  0
LINE
  8
0
 62
     0
 10
135.971
 20
40.8217
 30
0.0
 11
135.971
 21
54.821
 31
0.0
  0
LINE
  8
0
 62
     0
 10
95.2666
 20
58.3434
 30
0.0
 11
95.1879
 21
58.3336
 31
0.0
  0
LINE
  8
0
 62
     0
 10
95.1879
 20
58.3336
 30
0.0
 11
95.1107
 21
58.3188
 31
0.0
  0
LINE
  8
0
 62
     0
 10
95.1107
 20
58.3188
 30
0.0
 11
95.0352
 21
58.2979
 31
0.0
  0
LINE
  8
0
 62
     0
 10
95.0352
 20
58.2979
 30
0.0
 11
94.9621
 21
58.2704
 31
0.0
  0
LINE
  8
0
 62
     0
 10
94.9621
 20
58.2704
 30
0.0
 11
94.8916
 21
58.2387
 31
0.0
  0
LINE
  8
0
 62
     0
 10
94.8916
 20
58.2387
 30
0.0
 11
94.8228
 21
58.1988
 31
0.0
  0
LINE
  8
0
 62
     0
 10
94.8228
 20
58.1988
 30
0.0
 11
94.7579
 21
58.1561
 31
0.0
  0
LINE
  8
0
 62
     0
 10
94.7579
 20
58.1561
 30
0.0
 11
94.6961
 21
58.1078
 31
0.0
  0
LINE
  8
0
 62
     0
 10
94.6961
 20
58.1078
 30
0.0
 11
94.6383
 21
58.0542
 31
0.0
  0
LINE
  8
0
 62
     0
 10
94.6383
 20
58.0542
 30
0.0
 11
94.5843
 21
57.996
 31
0.0
  0
LINE
  8
0
 62
     0
 10
94.5843
 20
57.996
 30
0.0
 11
94.5349
 21
57.9342
 31
0.0
  0
LINE
  8
0
 62
     0
 10
94.5349
 20
57.9342
 30
0.0
 11
94.4922
 21
57.8693
 31
0.0
  0
LINE
  8
0
 62
     0
 10
94.4922
 20
57.8693
 30
0.0
 11
94.4534
 21
57.8005
 31
0.0
  0
LINE
  8
0
 62
     0
 10
94.4534
 20
57.8005
 30
0.0
 11
94.4217
 21
57.7289
 31
0.0
  0
LINE
  8
0
 62
     0
 10
94.4217
 20
57.7289
 30
0.0
 11
94.3928
 21
57.6559
 31
0.0
  0
LINE
  8
0
 62
     0
 10
94.3928
 20
57.6559
 30
0.0
 11
94.3723
 21
57.58
 31
0.0
  0
LINE
  8
0
 62
     0
 10
94.3723
 20
57.58
 30
0.0
 11
94.3571
 21
57.5028
 31
0.0
  0
LINE
  8
0
 62
     0
 10
94.3571
 20
57.5028
 30
0.0
 11
94.3487
 21
57.4255
 31
0.0
  0
LINE
  8
0
 62
     0
 10
94.3487
 20
57.4255
 30
0.0
 11
94.3448
 21
57.3458
 31
0.0
  0
LINE
  8
0
 62
     0
 10
94.3448
 20
57.3458
 30
0.0
 11
94.3487
 21
57.2685
 31
0.0
  0
LINE
  8
0
 62
     0
 10
94.3487
 20
57.2685
 30
0.0
 11
94.3571
 21
57.1899
 31
0.0
  0
LINE
  8
0
 62
     0
 10
94.3571
 20
57.1899
 30
0.0
 11
94.3723
 21
57.113
 31
0.0
  0
LINE
  8
0
 62
     0
 10
94.3723
 20
57.113
 30
0.0
 11
94.3928
 21
57.0371
 31
0.0
  0
LINE
  8
0
 62
     0
 10
94.3928
 20
57.0371
 30
0.0
 11
94.4217
 21
56.9641
 31
0.0
  0
LINE
  8
0
 62
     0
 10
94.4217
 20
56.9641
 30
0.0
 11
94.4534
 21
56.8935
 31
0.0
  0
LINE
  8
0
 62
     0
 10
94.4534
 20
56.8935
 30
0.0
 11
94.4922
 21
56.8247
 31
0.0
  0
LINE
  8
0
 62
     0
 10
94.4922
 20
56.8247
 30
0.0
 11
94.5349
 21
56.7588
 31
0.0
  0
LINE
  8
0
 62
     0
 10
94.5349
 20
56.7588
 30
0.0
 11
94.5843
 21
56.6967
 31
0.0
  0
LINE
  8
0
 62
     0
 10
94.5843
 20
56.6967
 30
0.0
 11
94.6383
 21
56.6388
 31
0.0
  0
LINE
  8
0
 62
     0
 10
94.6383
 20
56.6388
 30
0.0
 11
94.6961
 21
56.5863
 31
0.0
  0
LINE
  8
0
 62
     0
 10
94.6961
 20
56.5863
 30
0.0
 11
94.7579
 21
56.5369
 31
0.0
  0
LINE
  8
0
 62
     0
 10
94.7579
 20
56.5369
 30
0.0
 11
94.8228
 21
56.4942
 31
0.0
  0
LINE
  8
0
 62
     0
 10
94.8228
 20
56.4942
 30
0.0
 11
94.8916
 21
56.4554
 31
0.0
  0
LINE
  8
0
 62
     0
 10
94.8916
 20
56.4554
 30
0.0
 11
94.9621
 21
56.4236
 31
0.0
  0
LINE
  8
0
 62
     0
 10
94.9621
 20
56.4236
 30
0.0
 11
95.0352
 21
56.3947
 31
0.0
  0
LINE
  8
0
 62
     0
 10
95.0352
 20
56.3947
 30
0.0
 11
95.1107
 21
56.3742
 31
0.0
  0
LINE
  8
0
 62
     0
 10
95.1107
 20
56.3742
 30
0.0
 11
95.1879
 21
56.3591
 31
0.0
  0
LINE
  8
0
 62
     0
 10
95.1879
 20
56.3591
 30
0.0
 11
95.2666
 21
56.3506
 31
0.0
  0
LINE
  8
0
 62
     0
 10
95.2666
 20
56.3506
 30
0.0
 11
95.3452
 21
56.3467
 31
0.0
  0
LINE
  8
0
 62
     0
 10
95.3452
 20
56.3467
 30
0.0
 11
95.4236
 21
56.3506
 31
0.0
  0
LINE
  8
0
 62
     0
 10
95.4236
 20
56.3506
 30
0.0
 11
95.5008
 21
56.3591
 31
0.0
  0
LINE
  8
0
 62
     0
 10
95.5008
 20
56.3591
 30
0.0
 11
95.5781
 21
56.3742
 31
0.0
  0
LINE
  8
0
 62
     0
 10
95.5781
 20
56.3742
 30
0.0
 11
95.655
 21
56.3947
 31
0.0
  0
LINE
  8
0
 62
     0
 10
95.655
 20
56.3947
 30
0.0
 11
95.727
 21
56.4236
 31
0.0
  0
LINE
  8
0
 62
     0
 10
95.727
 20
56.4236
 30
0.0
 11
95.7986
 21
56.4554
 31
0.0
  0
LINE
  8
0
 62
     0
 10
95.7986
 20
56.4554
 30
0.0
 11
95.8674
 21
56.4942
 31
0.0
  0
LINE
  8
0
 62
     0
 10
95.8674
 20
56.4942
 30
0.0
 11
95.9323
 21
56.5369
 31
0.0
  0
LINE
  8
0
 62
     0
 10
95.9323
 20
56.5369
 30
0.0
 11
95.994
 21
56.5863
 31
0.0
  0
LINE
  8
0
 62
     0
 10
95.994
 20
56.5863
 30
0.0
 11
96.0519
 21
56.6388
 31
0.0
  0
LINE
  8
0
 62
     0
 10
96.0519
 20
56.6388
 30
0.0
 11
96.1058
 21
56.6967
 31
0.0
  0
LINE
  8
0
 62
     0
 10
96.1058
 20
56.6967
 30
0.0
 11
96.1542
 21
56.7588
 31
0.0
  0
LINE
  8
0
 62
     0
 10
96.1542
 20
56.7588
 30
0.0
 11
96.1983
 21
56.8247
 31
0.0
  0
LINE
  8
0
 62
     0
 10
96.1983
 20
56.8247
 30
0.0
 11
96.2367
 21
56.8935
 31
0.0
  0
LINE
  8
0
 62
     0
 10
96.2367
 20
56.8935
 30
0.0
 11
96.2685
 21
56.9641
 31
0.0
  0
LINE
  8
0
 62
     0
 10
96.2685
 20
56.9641
 30
0.0
 11
96.296
 21
57.0371
 31
0.0
  0
LINE
  8
0
 62
     0
 10
96.296
 20
57.0371
 30
0.0
 11
96.3179
 21
57.113
 31
0.0
  0
LINE
  8
0
 62
     0
 10
96.3179
 20
57.113
 30
0.0
 11
96.333
 21
57.1899
 31
0.0
  0
LINE
  8
0
 62
     0
 10
96.333
 20
57.1899
 30
0.0
 11
96.3415
 21
57.2685
 31
0.0
  0
LINE
  8
0
 62
     0
 10
96.3415
 20
57.2685
 30
0.0
 11
96.3454
 21
57.3458
 31
0.0
  0
LINE
  8
0
 62
     0
 10
96.3454
 20
57.3458
 30
0.0
 11
96.3415
 21
57.4255
 31
0.0
  0
LINE
  8
0
 62
     0
 10
96.3415
 20
57.4255
 30
0.0
 11
96.333
 21
57.5028
 31
0.0
  0
LINE
  8
0
 62
     0
 10
96.333
 20
57.5028
 30
0.0
 11
96.3179
 21
57.58
 31
0.0
  0
LINE
  8
0
 62
     0
 10
96.3179
 20
57.58
 30
0.0
 11
96.296
 21
57.6559
 31
0.0
  0
LINE
  8
0
 62
     0
 10
96.296
 20
57.6559
 30
0.0
 11
96.2685
 21
57.7289
 31
0.0
  0
LINE
  8
0
 62
     0
 10
96.2685
 20
57.7289
 30
0.0
 11
96.2367
 21
57.8005
 31
0.0
  0
LINE
  8
0
 62
     0
 10
96.2367
 20
57.8005
 30
0.0
 11
96.1983
 21
57.8693
 31
0.0
  0
LINE
  8
0
 62
     0
 10
96.1983
 20
57.8693
 30
0.0
 11
96.1542
 21
57.9342
 31
0.0
  0
LINE
  8
0
 62
     0
 10
96.1542
 20
57.9342
 30
0.0
 11
96.1058
 21
57.996
 31
0.0
  0
LINE
  8
0
 62
     0
 10
96.1058
 20
57.996
 30
0.0
 11
96.0519
 21
58.0542
 31
0.0
  0
LINE
  8
0
 62
     0
 10
96.0519
 20
58.0542
 30
0.0
 11
95.994
 21
58.1078
 31
0.0
  0
LINE
  8
0
 62
     0
 10
95.994
 20
58.1078
 30
0.0
 11
95.9323
 21
58.1561
 31
0.0
  0
LINE
  8
0
 62
     0
 10
95.9323
 20
58.1561
 30
0.0
 11
95.8674
 21
58.1988
 31
0.0
  0
LINE
  8
0
 62
     0
 10
95.8674
 20
58.1988
 30
0.0
 11
95.7986
 21
58.2387
 31
0.0
  0
LINE
  8
0
 62
     0
 10
95.7986
 20
58.2387
 30
0.0
 11
95.727
 21
58.2704
 31
0.0
  0
LINE
  8
0
 62
     0
 10
95.727
 20
58.2704
 30
0.0
 11
95.655
 21
58.2979
 31
0.0
  0
LINE
  8
0
 62
     0
 10
95.655
 20
58.2979
 30
0.0
 11
95.5781
 21
58.3188
 31
0.0
  0
LINE
  8
0
 62
     0
 10
95.5781
 20
58.3188
 30
0.0
 11
95.5008
 21
58.3336
 31
0.0
  0
LINE
  8
0
 62
     0
 10
95.5008
 20
58.3336
 30
0.0
 11
95.4236
 21
58.3434
 31
0.0
  0
LINE
  8
0
 62
     0
 10
95.4236
 20
58.3434
 30
0.0
 11
95.3452
 21
58.3463
 31
0.0
  0
LINE
  8
0
 62
     0
 10
95.3452
 20
58.3463
 30
0.0
 11
95.2666
 21
58.3434
 31
0.0
  0
LINE
  8
0
 62
     0
 10
2.62103
 20
73.871
 30
0.0
 11
16.6205
 21
73.871
 31
0.0
  0
LINE
  8
0
 62
     0
 10
16.6205
 20
73.871
 30
0.0
 11
16.6205
 21
59.8717
 31
0.0
  0
LINE
  8
0
 62
     0
 10
16.6205
 20
59.8717
 30
0.0
 11
2.62103
 21
59.8717
 31
0.0
  0
LINE
  8
0
 62
     0
 10
2.62103
 20
59.8717
 30
0.0
 11
2.62103
 21
73.871
 31
0.0
  0
LINE
  8
0
 62
     0
 10
21.671
 20
73.871
 30
0.0
 11
35.6704
 21
73.871
 31
0.0
  0
LINE
  8
0
 62
     0
 10
35.6704
 20
73.871
 30
0.0
 11
35.6704
 21
59.8717
 31
0.0
  0
LINE
  8
0
 62
     0
 10
35.6704
 20
59.8717
 30
0.0
 11
21.671
 21
59.8717
 31
0.0
  0
LINE
  8
0
 62
     0
 10
21.671
 20
59.8717
 30
0.0
 11
21.671
 21
73.871
 31
0.0
  0
LINE
  8
0
 62
     0
 10
40.7211
 20
73.871
 30
0.0
 11
54.7204
 21
73.871
 31
0.0
  0
LINE
  8
0
 62
     0
 10
54.7204
 20
73.871
 30
0.0
 11
54.7204
 21
59.8717
 31
0.0
  0
LINE
  8
0
 62
     0
 10
54.7204
 20
59.8717
 30
0.0
 11
40.7211
 21
59.8717
 31
0.0
  0
LINE
  8
0
 62
     0
 10
40.7211
 20
59.8717
 30
0.0
 11
40.7211
 21
73.871
 31
0.0
  0
LINE
  8
0
 62
     0
 10
59.7711
 20
73.871
 30
0.0
 11
73.7704
 21
73.871
 31
0.0
  0
LINE
  8
0
 62
     0
 10
73.7704
 20
73.871
 30
0.0
 11
73.7704
 21
59.8717
 31
0.0
  0
LINE
  8
0
 62
     0
 10
73.7704
 20
59.8717
 30
0.0
 11
59.7711
 21
59.8717
 31
0.0
  0
LINE
  8
0
 62
     0
 10
59.7711
 20
59.8717
 30
0.0
 11
59.7711
 21
73.871
 31
0.0
  0
LINE
  8
0
 62
     0
 10
78.8211
 20
73.871
 30
0.0
 11
92.8204
 21
73.871
 31
0.0
  0
LINE
  8
0
 62
     0
 10
92.8204
 20
73.871
 30
0.0
 11
92.8204
 21
59.8717
 31
0.0
  0
LINE
  8
0
 62
     0
 10
92.8204
 20
59.8717
 30
0.0
 11
78.8211
 21
59.8717
 31
0.0
  0
LINE
  8
0
 62
     0
 10
78.8211
 20
59.8717
 30
0.0
 11
78.8211
 21
73.871
 31
0.0
  0
LINE
  8
0
 62
     0
 10
97.8697
 20
73.871
 30
0.0
 11
111.869
 21
73.871
 31
0.0
  0
LINE
  8
0
 62
     0
 10
111.869
 20
73.871
 30
0.0
 11
111.869
 21
59.8717
 31
0.0
  0
LINE
  8
0
 62
     0
 10
111.869
 20
59.8717
 30
0.0
 11
97.8697
 21
59.8717
 31
0.0
  0
LINE
  8
0
 62
     0
 10
97.8697
 20
59.8717
 30
0.0
 11
97.8697
 21
73.871
 31
0.0
  0
LINE
  8
0
 62
     0
 10
116.92
 20
73.871
 30
0.0
 11
130.92
 21
73.871
 31
0.0
  0
LINE
  8
0
 62
     0
 10
130.92
 20
73.871
 30
0.0
 11
130.92
 21
59.8717
 31
0.0
  0
LINE
  8
0
 62
     0
 10
130.92
 20
59.8717
 30
0.0
 11
116.92
 21
59.8717
 31
0.0
  0
LINE
  8
0
 62
     0
 10
116.92
 20
59.8717
 30
0.0
 11
116.92
 21
73.871
 31
0.0
  0
LINE
  8
0
 62
     0
 10
135.971
 20
73.871
 30
0.0
 11
149.97
 21
73.871
 31
0.0
  0
LINE
  8
0
 62
     0
 10
149.97
 20
73.871
 30
0.0
 11
149.97
 21
59.8717
 31
0.0
  0
LINE
  8
0
 62
     0
 10
149.97
 20
59.8717
 30
0.0
 11
135.971
 21
59.8717
 31
0.0
  0
LINE
  8
0
 62
     0
 10
135.971
 20
59.8717
 30
0.0
 11
135.971
 21
73.871
 31
0.0
  0
LINE
  8
0
 62
     0
 10
19.0665
 20
77.3934
 30
0.0
 11
18.988
 21
77.3836
 31
0.0
  0
LINE
  8
0
 62
     0
 10
18.988
 20
77.3836
 30
0.0
 11
18.9108
 21
77.3688
 31
0.0
  0
LINE
  8
0
 62
     0
 10
18.9108
 20
77.3688
 30
0.0
 11
18.835
 21
77.3479
 31
0.0
  0
LINE
  8
0
 62
     0
 10
18.835
 20
77.3479
 30
0.0
 11
18.762
 21
77.3204
 31
0.0
  0
LINE
  8
0
 62
     0
 10
18.762
 20
77.3204
 30
0.0
 11
18.6917
 21
77.2887
 31
0.0
  0
LINE
  8
0
 62
     0
 10
18.6917
 20
77.2887
 30
0.0
 11
18.6228
 21
77.2488
 31
0.0
  0
LINE
  8
0
 62
     0
 10
18.6228
 20
77.2488
 30
0.0
 11
18.5581
 21
77.2061
 31
0.0
  0
LINE
  8
0
 62
     0
 10
18.5581
 20
77.2061
 30
0.0
 11
18.496
 21
77.1578
 31
0.0
  0
LINE
  8
0
 62
     0
 10
18.496
 20
77.1578
 30
0.0
 11
18.4381
 21
77.1042
 31
0.0
  0
LINE
  8
0
 62
     0
 10
18.4381
 20
77.1042
 30
0.0
 11
18.3844
 21
77.046
 31
0.0
  0
LINE
  8
0
 62
     0
 10
18.3844
 20
77.046
 30
0.0
 11
18.3362
 21
76.9842
 31
0.0
  0
LINE
  8
0
 62
     0
 10
18.3362
 20
76.9842
 30
0.0
 11
18.2921
 21
76.9193
 31
0.0
  0
LINE
  8
0
 62
     0
 10
18.2921
 20
76.9193
 30
0.0
 11
18.2535
 21
76.8505
 31
0.0
  0
LINE
  8
0
 62
     0
 10
18.2535
 20
76.8505
 30
0.0
 11
18.2218
 21
76.7789
 31
0.0
  0
LINE
  8
0
 62
     0
 10
18.2218
 20
76.7789
 30
0.0
 11
18.1929
 21
76.7059
 31
0.0
  0
LINE
  8
0
 62
     0
 10
18.1929
 20
76.7059
 30
0.0
 11
18.1722
 21
76.63
 31
0.0
  0
LINE
  8
0
 62
     0
 10
18.1722
 20
76.63
 30
0.0
 11
18.157
 21
76.5528
 31
0.0
  0
LINE
  8
0
 62
     0
 10
18.157
 20
76.5528
 30
0.0
 11
18.1488
 21
76.4755
 31
0.0
  0
LINE
  8
0
 62
     0
 10
18.1488
 20
76.4755
 30
0.0
 11
18.146
 21
76.3972
 31
0.0
  0
LINE
  8
0
 62
     0
 10
18.146
 20
76.3972
 30
0.0
 11
18.1488
 21
76.3185
 31
0.0
  0
LINE
  8
0
 62
     0
 10
18.1488
 20
76.3185
 30
0.0
 11
18.157
 21
76.2399
 31
0.0
  0
LINE
  8
0
 62
     0
 10
18.157
 20
76.2399
 30
0.0
 11
18.1722
 21
76.163
 31
0.0
  0
LINE
  8
0
 62
     0
 10
18.1722
 20
76.163
 30
0.0
 11
18.1929
 21
76.0871
 31
0.0
  0
LINE
  8
0
 62
     0
 10
18.1929
 20
76.0871
 30
0.0
 11
18.2218
 21
76.0141
 31
0.0
  0
LINE
  8
0
 62
     0
 10
18.2218
 20
76.0141
 30
0.0
 11
18.2535
 21
75.9435
 31
0.0
  0
LINE
  8
0
 62
     0
 10
18.2535
 20
75.9435
 30
0.0
 11
18.2921
 21
75.8747
 31
0.0
  0
LINE
  8
0
 62
     0
 10
18.2921
 20
75.8747
 30
0.0
 11
18.3362
 21
75.8088
 31
0.0
  0
LINE
  8
0
 62
     0
 10
18.3362
 20
75.8088
 30
0.0
 11
18.3844
 21
75.7467
 31
0.0
  0
LINE
  8
0
 62
     0
 10
18.3844
 20
75.7467
 30
0.0
 11
18.4381
 21
75.6888
 31
0.0
  0
LINE
  8
0
 62
     0
 10
18.4381
 20
75.6888
 30
0.0
 11
18.496
 21
75.6363
 31
0.0
  0
LINE
  8
0
 62
     0
 10
18.496
 20
75.6363
 30
0.0
 11
18.5581
 21
75.5869
 31
0.0
  0
LINE
  8
0
 62
     0
 10
18.5581
 20
75.5869
 30
0.0
 11
18.6228
 21
75.5442
 31
0.0
  0
LINE
  8
0
 62
     0
 10
18.6228
 20
75.5442
 30
0.0
 11
18.6917
 21
75.5054
 31
0.0
  0
LINE
  8
0
 62
     0
 10
18.6917
 20
75.5054
 30
0.0
 11
18.762
 21
75.4736
 31
0.0
  0
LINE
  8
0
 62
     0
 10
18.762
 20
75.4736
 30
0.0
 11
18.835
 21
75.4447
 31
0.0
  0
LINE
  8
0
 62
     0
 10
18.835
 20
75.4447
 30
0.0
 11
18.9108
 21
75.4242
 31
0.0
  0
LINE
  8
0
 62
     0
 10
18.9108
 20
75.4242
 30
0.0
 11
18.988
 21
75.4091
 31
0.0
  0
LINE
  8
0
 62
     0
 10
18.988
 20
75.4091
 30
0.0
 11
19.0665
 21
75.4006
 31
0.0
  0
LINE
  8
0
 62
     0
 10
19.0665
 20
75.4006
 30
0.0
 11
19.1451
 21
75.3967
 31
0.0
  0
LINE
  8
0
 62
     0
 10
19.1451
 20
75.3967
 30
0.0
 11
19.2236
 21
75.4006
 31
0.0
  0
LINE
  8
0
 62
     0
 10
19.2236
 20
75.4006
 30
0.0
 11
19.3008
 21
75.4091
 31
0.0
  0
LINE
  8
0
 62
     0
 10
19.3008
 20
75.4091
 30
0.0
 11
19.378
 21
75.4242
 31
0.0
  0
LINE
  8
0
 62
     0
 10
19.378
 20
75.4242
 30
0.0
 11
19.4551
 21
75.4447
 31
0.0
  0
LINE
  8
0
 62
     0
 10
19.4551
 20
75.4447
 30
0.0
 11
19.5268
 21
75.4736
 31
0.0
  0
LINE
  8
0
 62
     0
 10
19.5268
 20
75.4736
 30
0.0
 11
19.5985
 21
75.5054
 31
0.0
  0
LINE
  8
0
 62
     0
 10
19.5985
 20
75.5054
 30
0.0
 11
19.6674
 21
75.5442
 31
0.0
  0
LINE
  8
0
 62
     0
 10
19.6674
 20
75.5442
 30
0.0
 11
19.7321
 21
75.5869
 31
0.0
  0
LINE
  8
0
 62
     0
 10
19.7321
 20
75.5869
 30
0.0
 11
19.7942
 21
75.6363
 31
0.0
  0
LINE
  8
0
 62
     0
 10
19.7942
 20
75.6363
 30
0.0
 11
19.852
 21
75.6888
 31
0.0
  0
LINE
  8
0
 62
     0
 10
19.852
 20
75.6888
 30
0.0
 11
19.9058
 21
75.7467
 31
0.0
  0
LINE
  8
0
 62
     0
 10
19.9058
 20
75.7467
 30
0.0
 11
19.954
 21
75.8088
 31
0.0
  0
LINE
  8
0
 62
     0
 10
19.954
 20
75.8088
 30
0.0
 11
19.9981
 21
75.8747
 31
0.0
  0
LINE
  8
0
 62
     0
 10
19.9981
 20
75.8747
 30
0.0
 11
20.0367
 21
75.9435
 31
0.0
  0
LINE
  8
0
 62
     0
 10
20.0367
 20
75.9435
 30
0.0
 11
20.0684
 21
76.0141
 31
0.0
  0
LINE
  8
0
 62
     0
 10
20.0684
 20
76.0141
 30
0.0
 11
20.0959
 21
76.0871
 31
0.0
  0
LINE
  8
0
 62
     0
 10
20.0959
 20
76.0871
 30
0.0
 11
20.118
 21
76.163
 31
0.0
  0
LINE
  8
0
 62
     0
 10
20.118
 20
76.163
 30
0.0
 11
20.1331
 21
76.2399
 31
0.0
  0
LINE
  8
0
 62
     0
 10
20.1331
 20
76.2399
 30
0.0
 11
20.1414
 21
76.3185
 31
0.0
  0
LINE
  8
0
 62
     0
 10
20.1414
 20
76.3185
 30
0.0
 11
20.1456
 21
76.3972
 31
0.0
  0
LINE
  8
0
 62
     0
 10
20.1456
 20
76.3972
 30
0.0
 11
20.1414
 21
76.4755
 31
0.0
  0
LINE
  8
0
 62
     0
 10
20.1414
 20
76.4755
 30
0.0
 11
20.1331
 21
76.5528
 31
0.0
  0
LINE
  8
0
 62
     0
 10
20.1331
 20
76.5528
 30
0.0
 11
20.118
 21
76.63
 31
0.0
  0
LINE
  8
0
 62
     0
 10
20.118
 20
76.63
 30
0.0
 11
20.0959
 21
76.7059
 31
0.0
  0
LINE
  8
0
 62
     0
 10
20.0959
 20
76.7059
 30
0.0
 11
20.0684
 21
76.7789
 31
0.0
  0
LINE
  8
0
 62
     0
 10
20.0684
 20
76.7789
 30
0.0
 11
20.0367
 21
76.8505
 31
0.0
  0
LINE
  8
0
 62
     0
 10
20.0367
 20
76.8505
 30
0.0
 11
19.9981
 21
76.9193
 31
0.0
  0
LINE
  8
0
 62
     0
 10
19.9981
 20
76.9193
 30
0.0
 11
19.954
 21
76.9842
 31
0.0
  0
LINE
  8
0
 62
     0
 10
19.954
 20
76.9842
 30
0.0
 11
19.9058
 21
77.046
 31
0.0
  0
LINE
  8
0
 62
     0
 10
19.9058
 20
77.046
 30
0.0
 11
19.852
 21
77.1042
 31
0.0
  0
LINE
  8
0
 62
     0
 10
19.852
 20
77.1042
 30
0.0
 11
19.7942
 21
77.1578
 31
0.0
  0
LINE
  8
0
 62
     0
 10
19.7942
 20
77.1578
 30
0.0
 11
19.7321
 21
77.2061
 31
0.0
  0
LINE
  8
0
 62
     0
 10
19.7321
 20
77.2061
 30
0.0
 11
19.6674
 21
77.2488
 31
0.0
  0
LINE
  8
0
 62
     0
 10
19.6674
 20
77.2488
 30
0.0
 11
19.5985
 21
77.2887
 31
0.0
  0
LINE
  8
0
 62
     0
 10
19.5985
 20
77.2887
 30
0.0
 11
19.5268
 21
77.3204
 31
0.0
  0
LINE
  8
0
 62
     0
 10
19.5268
 20
77.3204
 30
0.0
 11
19.4551
 21
77.3479
 31
0.0
  0
LINE
  8
0
 62
     0
 10
19.4551
 20
77.3479
 30
0.0
 11
19.378
 21
77.3688
 31
0.0
  0
LINE
  8
0
 62
     0
 10
19.378
 20
77.3688
 30
0.0
 11
19.3008
 21
77.3836
 31
0.0
  0
LINE
  8
0
 62
     0
 10
19.3008
 20
77.3836
 30
0.0
 11
19.2236
 21
77.3934
 31
0.0
  0
LINE
  8
0
 62
     0
 10
19.2236
 20
77.3934
 30
0.0
 11
19.1451
 21
77.3963
 31
0.0
  0
LINE
  8
0
 62
     0
 10
19.1451
 20
77.3963
 30
0.0
 11
19.0665
 21
77.3934
 31
0.0
  0
LINE
  8
0
 62
     0
 10
2.62103
 20
92.921
 30
0.0
 11
16.6205
 21
92.921
 31
0.0
  0
LINE
  8
0
 62
     0
 10
16.6205
 20
92.921
 30
0.0
 11
16.6205
 21
78.9217
 31
0.0
  0
LINE
  8
0
 62
     0
 10
16.6205
 20
78.9217
 30
0.0
 11
2.62103
 21
78.9217
 31
0.0
  0
LINE
  8
0
 62
     0
 10
2.62103
 20
78.9217
 30
0.0
 11
2.62103
 21
92.921
 31
0.0
  0
LINE
  8
0
 62
     0
 10
21.671
 20
92.921
 30
0.0
 11
35.6704
 21
92.921
 31
0.0
  0
LINE
  8
0
 62
     0
 10
35.6704
 20
92.921
 30
0.0
 11
35.6704
 21
78.9217
 31
0.0
  0
LINE
  8
0
 62
     0
 10
35.6704
 20
78.9217
 30
0.0
 11
21.671
 21
78.9217
 31
0.0
  0
LINE
  8
0
 62
     0
 10
21.671
 20
78.9217
 30
0.0
 11
21.671
 21
92.921
 31
0.0
  0
LINE
  8
0
 62
     0
 10
40.7211
 20
92.921
 30
0.0
 11
54.7204
 21
92.921
 31
0.0
  0
LINE
  8
0
 62
     0
 10
54.7204
 20
92.921
 30
0.0
 11
54.7204
 21
78.9217
 31
0.0
  0
LINE
  8
0
 62
     0
 10
54.7204
 20
78.9217
 30
0.0
 11
40.7211
 21
78.9217
 31
0.0
  0
LINE
  8
0
 62
     0
 10
40.7211
 20
78.9217
 30
0.0
 11
40.7211
 21
92.921
 31
0.0
  0
LINE
  8
0
 62
     0
 10
59.7711
 20
92.921
 30
0.0
 11
73.7704
 21
92.921
 31
0.0
  0
LINE
  8
0
 62
     0
 10
73.7704
 20
92.921
 30
0.0
 11
73.7704
 21
78.9217
 31
0.0
  0
LINE
  8
0
 62
     0
 10
73.7704
 20
78.9217
 30
0.0
 11
59.7711
 21
78.9217
 31
0.0
  0
LINE
  8
0
 62
     0
 10
59.7711
 20
78.9217
 30
0.0
 11
59.7711
 21
92.921
 31
0.0
  0
LINE
  8
0
 62
     0
 10
78.8211
 20
92.921
 30
0.0
 11
92.8204
 21
92.921
 31
0.0
  0
LINE
  8
0
 62
     0
 10
92.8204
 20
92.921
 30
0.0
 11
92.8204
 21
78.9217
 31
0.0
  0
LINE
  8
0
 62
     0
 10
92.8204
 20
78.9217
 30
0.0
 11
78.8211
 21
78.9217
 31
0.0
  0
LINE
  8
0
 62
     0
 10
78.8211
 20
78.9217
 30
0.0
 11
78.8211
 21
92.921
 31
0.0
  0
LINE
  8
0
 62
     0
 10
97.8697
 20
92.921
 30
0.0
 11
111.869
 21
92.921
 31
0.0
  0
LINE
  8
0
 62
     0
 10
111.869
 20
92.921
 30
0.0
 11
111.869
 21
78.9217
 31
0.0
  0
LINE
  8
0
 62
     0
 10
111.869
 20
78.9217
 30
0.0
 11
97.8697
 21
78.9217
 31
0.0
  0
LINE
  8
0
 62
     0
 10
97.8697
 20
78.9217
 30
0.0
 11
97.8697
 21
92.921
 31
0.0
  0
LINE
  8
0
 62
     0
 10
116.92
 20
92.921
 30
0.0
 11
130.92
 21
92.921
 31
0.0
  0
LINE
  8
0
 62
     0
 10
130.92
 20
92.921
 30
0.0
 11
130.92
 21
78.9217
 31
0.0
  0
LINE
  8
0
 62
     0
 10
130.92
 20
78.9217
 30
0.0
 11
116.92
 21
78.9217
 31
0.0
  0
LINE
  8
0
 62
     0
 10
116.92
 20
78.9217
 30
0.0
 11
116.92
 21
92.921
 31
0.0
  0
LINE
  8
0
 62
     0
 10
135.971
 20
92.921
 30
0.0
 11
149.97
 21
92.921
 31
0.0
  0
LINE
  8
0
 62
     0
 10
149.97
 20
92.921
 30
0.0
 11
149.97
 21
78.9217
 31
0.0
  0
LINE
  8
0
 62
     0
 10
149.97
 20
78.9217
 30
0.0
 11
135.971
 21
78.9217
 31
0.0
  0
LINE
  8
0
 62
     0
 10
135.971
 20
78.9217
 30
0.0
 11
135.971
 21
92.921
 31
0.0
  0
LINE
  8
0
 62
     0
 10
57.1666
 20
96.4434
 30
0.0
 11
57.0879
 21
96.4336
 31
0.0
  0
LINE
  8
0
 62
     0
 10
57.0879
 20
96.4336
 30
0.0
 11
57.0107
 21
96.4187
 31
0.0
  0
LINE
  8
0
 62
     0
 10
57.0107
 20
96.4187
 30
0.0
 11
56.9352
 21
96.3979
 31
0.0
  0
LINE
  8
0
 62
     0
 10
56.9352
 20
96.3979
 30
0.0
 11
56.8621
 21
96.3704
 31
0.0
  0
LINE
  8
0
 62
     0
 10
56.8621
 20
96.3704
 30
0.0
 11
56.7916
 21
96.3387
 31
0.0
  0
LINE
  8
0
 62
     0
 10
56.7916
 20
96.3387
 30
0.0
 11
56.7228
 21
96.2988
 31
0.0
  0
LINE
  8
0
 62
     0
 10
56.7228
 20
96.2988
 30
0.0
 11
56.6579
 21
96.2561
 31
0.0
  0
LINE
  8
0
 62
     0
 10
56.6579
 20
96.2561
 30
0.0
 11
56.5961
 21
96.2078
 31
0.0
  0
LINE
  8
0
 62
     0
 10
56.5961
 20
96.2078
 30
0.0
 11
56.5383
 21
96.1542
 31
0.0
  0
LINE
  8
0
 62
     0
 10
56.5383
 20
96.1542
 30
0.0
 11
56.4843
 21
96.096
 31
0.0
  0
LINE
  8
0
 62
     0
 10
56.4843
 20
96.096
 30
0.0
 11
56.4349
 21
96.0342
 31
0.0
  0
LINE
  8
0
 62
     0
 10
56.4349
 20
96.0342
 30
0.0
 11
56.3922
 21
95.9693
 31
0.0
  0
LINE
  8
0
 62
     0
 10
56.3922
 20
95.9693
 30
0.0
 11
56.3534
 21
95.9005
 31
0.0
  0
LINE
  8
0
 62
     0
 10
56.3534
 20
95.9005
 30
0.0
 11
56.3217
 21
95.8289
 31
0.0
  0
LINE
  8
0
 62
     0
 10
56.3217
 20
95.8289
 30
0.0
 11
56.2928
 21
95.7559
 31
0.0
  0
LINE
  8
0
 62
     0
 10
56.2928
 20
95.7559
 30
0.0
 11
56.2723
 21
95.68
 31
0.0
  0
LINE
  8
0
 62
     0
 10
56.2723
 20
95.68
 30
0.0
 11
56.2571
 21
95.6028
 31
0.0
  0
LINE
  8
0
 62
     0
 10
56.2571
 20
95.6028
 30
0.0
 11
56.2487
 21
95.5255
 31
0.0
  0
LINE
  8
0
 62
     0
 10
56.2487
 20
95.5255
 30
0.0
 11
56.2462
 21
95.4458
 31
0.0
  0
LINE
  8
0
 62
     0
 10
56.2462
 20
95.4458
 30
0.0
 11
56.2487
 21
95.3685
 31
0.0
  0
LINE
  8
0
 62
     0
 10
56.2487
 20
95.3685
 30
0.0
 11
56.2571
 21
95.2899
 31
0.0
  0
LINE
  8
0
 62
     0
 10
56.2571
 20
95.2899
 30
0.0
 11
56.2723
 21
95.213
 31
0.0
  0
LINE
  8
0
 62
     0
 10
56.2723
 20
95.213
 30
0.0
 11
56.2928
 21
95.1371
 31
0.0
  0
LINE
  8
0
 62
     0
 10
56.2928
 20
95.1371
 30
0.0
 11
56.3217
 21
95.0641
 31
0.0
  0
LINE
  8
0
 62
     0
 10
56.3217
 20
95.0641
 30
0.0
 11
56.3534
 21
94.9935
 31
0.0
  0
LINE
  8
0
 62
     0
 10
56.3534
 20
94.9935
 30
0.0
 11
56.3922
 21
94.9247
 31
0.0
  0
LINE
  8
0
 62
     0
 10
56.3922
 20
94.9247
 30
0.0
 11
56.4349
 21
94.8588
 31
0.0
  0
LINE
  8
0
 62
     0
 10
56.4349
 20
94.8588
 30
0.0
 11
56.4843
 21
94.7967
 31
0.0
  0
LINE
  8
0
 62
     0
 10
56.4843
 20
94.7967
 30
0.0
 11
56.5383
 21
94.7388
 31
0.0
  0
LINE
  8
0
 62
     0
 10
56.5383
 20
94.7388
 30
0.0
 11
56.5961
 21
94.6863
 31
0.0
  0
LINE
  8
0
 62
     0
 10
56.5961
 20
94.6863
 30
0.0
 11
56.6579
 21
94.6369
 31
0.0
  0
LINE
  8
0
 62
     0
 10
56.6579
 20
94.6369
 30
0.0
 11
56.7228
 21
94.5942
 31
0.0
  0
LINE
  8
0
 62
     0
 10
56.7228
 20
94.5942
 30
0.0
 11
56.7916
 21
94.5554
 31
0.0
  0
LINE
  8
0
 62
     0
 10
56.7916
 20
94.5554
 30
0.0
 11
56.8621
 21
94.5236
 31
0.0
  0
LINE
  8
0
 62
     0
 10
56.8621
 20
94.5236
 30
0.0
 11
56.9352
 21
94.4947
 31
0.0
  0
LINE
  8
0
 62
     0
 10
56.9352
 20
94.4947
 30
0.0
 11
57.0107
 21
94.4742
 31
0.0
  0
LINE
  8
0
 62
     0
 10
57.0107
 20
94.4742
 30
0.0
 11
57.0879
 21
94.4591
 31
0.0
  0
LINE
  8
0
 62
     0
 10
57.0879
 20
94.4591
 30
0.0
 11
57.1666
 21
94.4506
 31
0.0
  0
LINE
  8
0
 62
     0
 10
57.1666
 20
94.4506
 30
0.0
 11
57.2453
 21
94.4467
 31
0.0
  0
LINE
  8
0
 62
     0
 10
57.2453
 20
94.4467
 30
0.0
 11
57.3236
 21
94.4506
 31
0.0
  0
LINE
  8
0
 62
     0
 10
57.3236
 20
94.4506
 30
0.0
 11
57.4008
 21
94.4591
 31
0.0
  0
LINE
  8
0
 62
     0
 10
57.4008
 20
94.4591
 30
0.0
 11
57.4781
 21
94.4742
 31
0.0
  0
LINE
  8
0
 62
     0
 10
57.4781
 20
94.4742
 30
0.0
 11
57.555
 21
94.4947
 31
0.0
  0
LINE
  8
0
 62
     0
 10
57.555
 20
94.4947
 30
0.0
 11
57.627
 21
94.5236
 31
0.0
  0
LINE
  8
0
 62
     0
 10
57.627
 20
94.5236
 30
0.0
 11
57.6986
 21
94.5554
 31
0.0
  0
LINE
  8
0
 62
     0
 10
57.6986
 20
94.5554
 30
0.0
 11
57.7674
 21
94.5942
 31
0.0
  0
LINE
  8
0
 62
     0
 10
57.7674
 20
94.5942
 30
0.0
 11
57.8323
 21
94.6369
 31
0.0
  0
LINE
  8
0
 62
     0
 10
57.8323
 20
94.6369
 30
0.0
 11
57.894
 21
94.6863
 31
0.0
  0
LINE
  8
0
 62
     0
 10
57.894
 20
94.6863
 30
0.0
 11
57.9519
 21
94.7388
 31
0.0
  0
LINE
  8
0
 62
     0
 10
57.9519
 20
94.7388
 30
0.0
 11
58.0058
 21
94.7967
 31
0.0
  0
LINE
  8
0
 62
     0
 10
58.0058
 20
94.7967
 30
0.0
 11
58.0542
 21
94.8588
 31
0.0
  0
LINE
  8
0
 62
     0
 10
58.0542
 20
94.8588
 30
0.0
 11
58.0983
 21
94.9247
 31
0.0
  0
LINE
  8
0
 62
     0
 10
58.0983
 20
94.9247
 30
0.0
 11
58.1367
 21
94.9935
 31
0.0
  0
LINE
  8
0
 62
     0
 10
58.1367
 20
94.9935
 30
0.0
 11
58.1685
 21
95.0641
 31
0.0
  0
LINE
  8
0
 62
     0
 10
58.1685
 20
95.0641
 30
0.0
 11
58.196
 21
95.1371
 31
0.0
  0
LINE
  8
0
 62
     0
 10
58.196
 20
95.1371
 30
0.0
 11
58.2179
 21
95.213
 31
0.0
  0
LINE
  8
0
 62
     0
 10
58.2179
 20
95.213
 30
0.0
 11
58.233
 21
95.2899
 31
0.0
  0
LINE
  8
0
 62
     0
 10
58.233
 20
95.2899
 30
0.0
 11
58.2415
 21
95.3685
 31
0.0
  0
LINE
  8
0
 62
     0
 10
58.2415
 20
95.3685
 30
0.0
 11
58.2443
 21
95.4458
 31
0.0
  0
LINE
  8
0
 62
     0
 10
58.2443
 20
95.4458
 30
0.0
 11
58.2415
 21
95.5255
 31
0.0
  0
LINE
  8
0
 62
     0
 10
58.2415
 20
95.5255
 30
0.0
 11
58.233
 21
95.6028
 31
0.0
  0
LINE
  8
0
 62
     0
 10
58.233
 20
95.6028
 30
0.0
 11
58.2179
 21
95.68
 31
0.0
  0
LINE
  8
0
 62
     0
 10
58.2179
 20
95.68
 30
0.0
 11
58.196
 21
95.7559
 31
0.0
  0
LINE
  8
0
 62
     0
 10
58.196
 20
95.7559
 30
0.0
 11
58.1685
 21
95.8289
 31
0.0
  0
LINE
  8
0
 62
     0
 10
58.1685
 20
95.8289
 30
0.0
 11
58.1367
 21
95.9005
 31
0.0
  0
LINE
  8
0
 62
     0
 10
58.1367
 20
95.9005
 30
0.0
 11
58.0983
 21
95.9693
 31
0.0
  0
LINE
  8
0
 62
     0
 10
58.0983
 20
95.9693
 30
0.0
 11
58.0542
 21
96.0342
 31
0.0
  0
LINE
  8
0
 62
     0
 10
58.0542
 20
96.0342
 30
0.0
 11
58.0058
 21
96.096
 31
0.0
  0
LINE
  8
0
 62
     0
 10
58.0058
 20
96.096
 30
0.0
 11
57.9519
 21
96.1542
 31
0.0
  0
LINE
  8
0
 62
     0
 10
57.9519
 20
96.1542
 30
0.0
 11
57.894
 21
96.2078
 31
0.0
  0
LINE
  8
0
 62
     0
 10
57.894
 20
96.2078
 30
0.0
 11
57.8323
 21
96.2561
 31
0.0
  0
LINE
  8
0
 62
     0
 10
57.8323
 20
96.2561
 30
0.0
 11
57.7674
 21
96.2988
 31
0.0
  0
LINE
  8
0
 62
     0
 10
57.7674
 20
96.2988
 30
0.0
 11
57.6986
 21
96.3387
 31
0.0
  0
LINE
  8
0
 62
     0
 10
57.6986
 20
96.3387
 30
0.0
 11
57.627
 21
96.3704
 31
0.0
  0
LINE
  8
0
 62
     0
 10
57.627
 20
96.3704
 30
0.0
 11
57.555
 21
96.3979
 31
0.0
  0
LINE
  8
0
 62
     0
 10
57.555
 20
96.3979
 30
0.0
 11
57.4781
 21
96.4187
 31
0.0
  0
LINE
  8
0
 62
     0
 10
57.4781
 20
96.4187
 30
0.0
 11
57.4008
 21
96.4336
 31
0.0
  0
LINE
  8
0
 62
     0
 10
57.4008
 20
96.4336
 30
0.0
 11
57.3236
 21
96.4434
 31
0.0
  0
LINE
  8
0
 62
     0
 10
57.3236
 20
96.4434
 30
0.0
 11
57.2453
 21
96.4463
 31
0.0
  0
LINE
  8
0
 62
     0
 10
57.2453
 20
96.4463
 30
0.0
 11
57.1666
 21
96.4434
 31
0.0
  0
LINE
  8
0
 62
     0
 10
114.317
 20
96.4434
 30
0.0
 11
114.238
 21
96.4336
 31
0.0
  0
LINE
  8
0
 62
     0
 10
114.238
 20
96.4336
 30
0.0
 11
114.161
 21
96.4187
 31
0.0
  0
LINE
  8
0
 62
     0
 10
114.161
 20
96.4187
 30
0.0
 11
114.085
 21
96.3979
 31
0.0
  0
LINE
  8
0
 62
     0
 10
114.085
 20
96.3979
 30
0.0
 11
114.012
 21
96.3704
 31
0.0
  0
LINE
  8
0
 62
     0
 10
114.012
 20
96.3704
 30
0.0
 11
113.942
 21
96.3387
 31
0.0
  0
LINE
  8
0
 62
     0
 10
113.942
 20
96.3387
 30
0.0
 11
113.873
 21
96.2988
 31
0.0
  0
LINE
  8
0
 62
     0
 10
113.873
 20
96.2988
 30
0.0
 11
113.808
 21
96.2561
 31
0.0
  0
LINE
  8
0
 62
     0
 10
113.808
 20
96.2561
 30
0.0
 11
113.746
 21
96.2078
 31
0.0
  0
LINE
  8
0
 62
     0
 10
113.746
 20
96.2078
 30
0.0
 11
113.688
 21
96.1542
 31
0.0
  0
LINE
  8
0
 62
     0
 10
113.688
 20
96.1542
 30
0.0
 11
113.634
 21
96.096
 31
0.0
  0
LINE
  8
0
 62
     0
 10
113.634
 20
96.096
 30
0.0
 11
113.585
 21
96.0342
 31
0.0
  0
LINE
  8
0
 62
     0
 10
113.585
 20
96.0342
 30
0.0
 11
113.542
 21
95.9693
 31
0.0
  0
LINE
  8
0
 62
     0
 10
113.542
 20
95.9693
 30
0.0
 11
113.503
 21
95.9005
 31
0.0
  0
LINE
  8
0
 62
     0
 10
113.503
 20
95.9005
 30
0.0
 11
113.472
 21
95.8289
 31
0.0
  0
LINE
  8
0
 62
     0
 10
113.472
 20
95.8289
 30
0.0
 11
113.443
 21
95.7559
 31
0.0
  0
LINE
  8
0
 62
     0
 10
113.443
 20
95.7559
 30
0.0
 11
113.422
 21
95.68
 31
0.0
  0
LINE
  8
0
 62
     0
 10
113.422
 20
95.68
 30
0.0
 11
113.407
 21
95.6028
 31
0.0
  0
LINE
  8
0
 62
     0
 10
113.407
 20
95.6028
 30
0.0
 11
113.399
 21
95.5255
 31
0.0
  0
LINE
  8
0
 62
     0
 10
113.399
 20
95.5255
 30
0.0
 11
113.396
 21
95.4458
 31
0.0
  0
LINE
  8
0
 62
     0
 10
113.396
 20
95.4458
 30
0.0
 11
113.399
 21
95.3685
 31
0.0
  0
LINE
  8
0
 62
     0
 10
113.399
 20
95.3685
 30
0.0
 11
113.407
 21
95.2899
 31
0.0
  0
LINE
  8
0
 62
     0
 10
113.407
 20
95.2899
 30
0.0
 11
113.422
 21
95.213
 31
0.0
  0
LINE
  8
0
 62
     0
 10
113.422
 20
95.213
 30
0.0
 11
113.443
 21
95.1371
 31
0.0
  0
LINE
  8
0
 62
     0
 10
113.443
 20
95.1371
 30
0.0
 11
113.472
 21
95.0641
 31
0.0
  0
LINE
  8
0
 62
     0
 10
113.472
 20
95.0641
 30
0.0
 11
113.503
 21
94.9935
 31
0.0
  0
LINE
  8
0
 62
     0
 10
113.503
 20
94.9935
 30
0.0
 11
113.542
 21
94.9247
 31
0.0
  0
LINE
  8
0
 62
     0
 10
113.542
 20
94.9247
 30
0.0
 11
113.585
 21
94.8588
 31
0.0
  0
LINE
  8
0
 62
     0
 10
113.585
 20
94.8588
 30
0.0
 11
113.634
 21
94.7967
 31
0.0
  0
LINE
  8
0
 62
     0
 10
113.634
 20
94.7967
 30
0.0
 11
113.688
 21
94.7388
 31
0.0
  0
LINE
  8
0
 62
     0
 10
113.688
 20
94.7388
 30
0.0
 11
113.746
 21
94.6863
 31
0.0
  0
LINE
  8
0
 62
     0
 10
113.746
 20
94.6863
 30
0.0
 11
113.808
 21
94.6369
 31
0.0
  0
LINE
  8
0
 62
     0
 10
113.808
 20
94.6369
 30
0.0
 11
113.873
 21
94.5942
 31
0.0
  0
LINE
  8
0
 62
     0
 10
113.873
 20
94.5942
 30
0.0
 11
113.942
 21
94.5554
 31
0.0
  0
LINE
  8
0
 62
     0
 10
113.942
 20
94.5554
 30
0.0
 11
114.012
 21
94.5236
 31
0.0
  0
LINE
  8
0
 62
     0
 10
114.012
 20
94.5236
 30
0.0
 11
114.085
 21
94.4947
 31
0.0
  0
LINE
  8
0
 62
     0
 10
114.085
 20
94.4947
 30
0.0
 11
114.161
 21
94.4742
 31
0.0
  0
LINE
  8
0
 62
     0
 10
114.161
 20
94.4742
 30
0.0
 11
114.238
 21
94.4591
 31
0.0
  0
LINE
  8
0
 62
     0
 10
114.238
 20
94.4591
 30
0.0
 11
114.317
 21
94.4506
 31
0.0
  0
LINE
  8
0
 62
     0
 10
114.317
 20
94.4506
 30
0.0
 11
114.395
 21
94.4467
 31
0.0
  0
LINE
  8
0
 62
     0
 10
114.395
 20
94.4467
 30
0.0
 11
114.474
 21
94.4506
 31
0.0
  0
LINE
  8
0
 62
     0
 10
114.474
 20
94.4506
 30
0.0
 11
114.551
 21
94.4591
 31
0.0
  0
LINE
  8
0
 62
     0
 10
114.551
 20
94.4591
 30
0.0
 11
114.628
 21
94.4742
 31
0.0
  0
LINE
  8
0
 62
     0
 10
114.628
 20
94.4742
 30
0.0
 11
114.705
 21
94.4947
 31
0.0
  0
LINE
  8
0
 62
     0
 10
114.705
 20
94.4947
 30
0.0
 11
114.777
 21
94.5236
 31
0.0
  0
LINE
  8
0
 62
     0
 10
114.777
 20
94.5236
 30
0.0
 11
114.849
 21
94.5554
 31
0.0
  0
LINE
  8
0
 62
     0
 10
114.849
 20
94.5554
 30
0.0
 11
114.917
 21
94.5942
 31
0.0
  0
LINE
  8
0
 62
     0
 10
114.917
 20
94.5942
 30
0.0
 11
114.982
 21
94.6369
 31
0.0
  0
LINE
  8
0
 62
     0
 10
114.982
 20
94.6369
 30
0.0
 11
115.044
 21
94.6863
 31
0.0
  0
LINE
  8
0
 62
     0
 10
115.044
 20
94.6863
 30
0.0
 11
115.102
 21
94.7388
 31
0.0
  0
LINE
  8
0
 62
     0
 10
115.102
 20
94.7388
 30
0.0
 11
115.156
 21
94.7967
 31
0.0
  0
LINE
  8
0
 62
     0
 10
115.156
 20
94.7967
 30
0.0
 11
115.204
 21
94.8588
 31
0.0
  0
LINE
  8
0
 62
     0
 10
115.204
 20
94.8588
 30
0.0
 11
115.248
 21
94.9247
 31
0.0
  0
LINE
  8
0
 62
     0
 10
115.248
 20
94.9247
 30
0.0
 11
115.287
 21
94.9935
 31
0.0
  0
LINE
  8
0
 62
     0
 10
115.287
 20
94.9935
 30
0.0
 11
115.318
 21
95.0641
 31
0.0
  0
LINE
  8
0
 62
     0
 10
115.318
 20
95.0641
 30
0.0
 11
115.346
 21
95.1371
 31
0.0
  0
LINE
  8
0
 62
     0
 10
115.346
 20
95.1371
 30
0.0
 11
115.368
 21
95.213
 31
0.0
  0
LINE
  8
0
 62
     0
 10
115.368
 20
95.213
 30
0.0
 11
115.383
 21
95.2899
 31
0.0
  0
LINE
  8
0
 62
     0
 10
115.383
 20
95.2899
 30
0.0
 11
115.391
 21
95.3685
 31
0.0
  0
LINE
  8
0
 62
     0
 10
115.391
 20
95.3685
 30
0.0
 11
115.395
 21
95.4458
 31
0.0
  0
LINE
  8
0
 62
     0
 10
115.395
 20
95.4458
 30
0.0
 11
115.391
 21
95.5255
 31
0.0
  0
LINE
  8
0
 62
     0
 10
115.391
 20
95.5255
 30
0.0
 11
115.383
 21
95.6028
 31
0.0
  0
LINE
  8
0
 62
     0
 10
115.383
 20
95.6028
 30
0.0
 11
115.368
 21
95.68
 31
0.0
  0
LINE
  8
0
 62
     0
 10
115.368
 20
95.68
 30
0.0
 11
115.346
 21
95.7559
 31
0.0
  0
LINE
  8
0
 62
     0
 10
115.346
 20
95.7559
 30
0.0
 11
115.318
 21
95.8289
 31
0.0
  0
LINE
  8
0
 62
     0
 10
115.318
 20
95.8289
 30
0.0
 11
115.287
 21
95.9005
 31
0.0
  0
LINE
  8
0
 62
     0
 10
115.287
 20
95.9005
 30
0.0
 11
115.248
 21
95.9693
 31
0.0
  0
LINE
  8
0
 62
     0
 10
115.248
 20
95.9693
 30
0.0
 11
115.204
 21
96.0342
 31
0.0
  0
LINE
  8
0
 62
     0
 10
115.204
 20
96.0342
 30
0.0
 11
115.156
 21
96.096
 31
0.0
  0
LINE
  8
0
 62
     0
 10
115.156
 20
96.096
 30
0.0
 11
115.102
 21
96.1542
 31
0.0
  0
LINE
  8
0
 62
     0
 10
115.102
 20
96.1542
 30
0.0
 11
115.044
 21
96.2078
 31
0.0
  0
LINE
  8
0
 62
     0
 10
115.044
 20
96.2078
 30
0.0
 11
114.982
 21
96.2561
 31
0.0
  0
LINE
  8
0
 62
     0
 10
114.982
 20
96.2561
 30
0.0
 11
114.917
 21
96.2988
 31
0.0
  0
LINE
  8
0
 62
     0
 10
114.917
 20
96.2988
 30
0.0
 11
114.849
 21
96.3387
 31
0.0
  0
LINE
  8
0
 62
     0
 10
114.849
 20
96.3387
 30
0.0
 11
114.777
 21
96.3704
 31
0.0
  0
LINE
  8
0
 62
     0
 10
114.777
 20
96.3704
 30
0.0
 11
114.705
 21
96.3979
 31
0.0
  0
LINE
  8
0
 62
     0
 10
114.705
 20
96.3979
 30
0.0
 11
114.628
 21
96.4187
 31
0.0
  0
LINE
  8
0
 62
     0
 10
114.628
 20
96.4187
 30
0.0
 11
114.551
 21
96.4336
 31
0.0
  0
LINE
  8
0
 62
     0
 10
114.551
 20
96.4336
 30
0.0
 11
114.474
 21
96.4434
 31
0.0
  0
LINE
  8
0
 62
     0
 10
114.474
 20
96.4434
 30
0.0
 11
114.395
 21
96.4463
 31
0.0
  0
LINE
  8
0
 62
     0
 10
114.395
 20
96.4463
 30
0.0
 11
114.317
 21
96.4434
 31
0.0
  0
LINE
  8
0
 62
     0
 10
2.62103
 20
111.972
 30
0.0
 11
16.6205
 21
111.972
 31
0.0
  0
LINE
  8
0
 62
     0
 10
16.6205
 20
111.972
 30
0.0
 11
16.6205
 21
97.9717
 31
0.0
  0
LINE
  8
0
 62
     0
 10
16.6205
 20
97.9717
 30
0.0
 11
2.62103
 21
97.9717
 31
0.0
  0
LINE
  8
0
 62
     0
 10
2.62103
 20
97.9717
 30
0.0
 11
2.62103
 21
111.972
 31
0.0
  0
LINE
  8
0
 62
     0
 10
21.671
 20
111.972
 30
0.0
 11
35.6704
 21
111.972
 31
0.0
  0
LINE
  8
0
 62
     0
 10
35.6704
 20
111.972
 30
0.0
 11
35.6704
 21
97.9717
 31
0.0
  0
LINE
  8
0
 62
     0
 10
35.6704
 20
97.9717
 30
0.0
 11
21.671
 21
97.9717
 31
0.0
  0
LINE
  8
0
 62
     0
 10
21.671
 20
97.9717
 30
0.0
 11
21.671
 21
111.972
 31
0.0
  0
LINE
  8
0
 62
     0
 10
40.7211
 20
111.972
 30
0.0
 11
54.7204
 21
111.972
 31
0.0
  0
LINE
  8
0
 62
     0
 10
54.7204
 20
111.972
 30
0.0
 11
54.7204
 21
97.9717
 31
0.0
  0
LINE
  8
0
 62
     0
 10
54.7204
 20
97.9717
 30
0.0
 11
40.7211
 21
97.9717
 31
0.0
  0
LINE
  8
0
 62
     0
 10
40.7211
 20
97.9717
 30
0.0
 11
40.7211
 21
111.972
 31
0.0
  0
LINE
  8
0
 62
     0
 10
59.7711
 20
111.972
 30
0.0
 11
73.7704
 21
111.972
 31
0.0
  0
LINE
  8
0
 62
     0
 10
73.7704
 20
111.972
 30
0.0
 11
73.7704
 21
97.9717
 31
0.0
  0
LINE
  8
0
 62
     0
 10
73.7704
 20
97.9717
 30
0.0
 11
59.7711
 21
97.9717
 31
0.0
  0
LINE
  8
0
 62
     0
 10
59.7711
 20
97.9717
 30
0.0
 11
59.7711
 21
111.972
 31
0.0
  0
LINE
  8
0
 62
     0
 10
78.8211
 20
111.972
 30
0.0
 11
92.8204
 21
111.972
 31
0.0
  0
LINE
  8
0
 62
     0
 10
92.8204
 20
111.972
 30
0.0
 11
92.8204
 21
97.9717
 31
0.0
  0
LINE
  8
0
 62
     0
 10
92.8204
 20
97.9717
 30
0.0
 11
78.8211
 21
97.9717
 31
0.0
  0
LINE
  8
0
 62
     0
 10
78.8211
 20
97.9717
 30
0.0
 11
78.8211
 21
111.972
 31
0.0
  0
LINE
  8
0
 62
     0
 10
97.8697
 20
111.972
 30
0.0
 11
111.869
 21
111.972
 31
0.0
  0
LINE
  8
0
 62
     0
 10
111.869
 20
111.972
 30
0.0
 11
111.869
 21
97.9717
 31
0.0
  0
LINE
  8
0
 62
     0
 10
111.869
 20
97.9717
 30
0.0
 11
97.8697
 21
97.9717
 31
0.0
  0
LINE
  8
0
 62
     0
 10
97.8697
 20
97.9717
 30
0.0
 11
97.8697
 21
111.972
 31
0.0
  0
LINE
  8
0
 62
     0
 10
116.92
 20
111.972
 30
0.0
 11
130.92
 21
111.972
 31
0.0
  0
LINE
  8
0
 62
     0
 10
130.92
 20
111.972
 30
0.0
 11
130.92
 21
97.9717
 31
0.0
  0
LINE
  8
0
 62
     0
 10
130.92
 20
97.9717
 30
0.0
 11
116.92
 21
97.9717
 31
0.0
  0
LINE
  8
0
 62
     0
 10
116.92
 20
97.9717
 30
0.0
 11
116.92
 21
111.972
 31
0.0
  0
LINE
  8
0
 62
     0
 10
135.971
 20
111.972
 30
0.0
 11
149.97
 21
111.972
 31
0.0
  0
LINE
  8
0
 62
     0
 10
149.97
 20
111.972
 30
0.0
 11
149.97
 21
97.9717
 31
0.0
  0
LINE
  8
0
 62
     0
 10
149.97
 20
97.9717
 30
0.0
 11
135.971
 21
97.9717
 31
0.0
  0
LINE
  8
0
 62
     0
 10
135.971
 20
97.9717
 30
0.0
 11
135.971
 21
111.972
 31
0.0
  0
ENDSEC
  0
EOF
